<?xml version="1.0" standalone="no"?>
<!DOCTYPE svg PUBLIC "-//W3C//DTD SVG 20010904//EN"
 "http://www.w3.org/TR/2001/REC-SVG-20010904/DTD/svg10.dtd">
<svg version="1.0" xmlns="http://www.w3.org/2000/svg"
 width="703.000000pt" height="472.000000pt" viewBox="0 0 703.000000 472.000000"
 preserveAspectRatio="xMidYMid meet">

<g transform="translate(0.000000,472.000000) scale(0.100000,-0.100000)"
fill="#000000" stroke="none">
<path d="M0 2360 l0 -2360 3515 0 3515 0 0 2360 0 2360 -3515 0 -3515 0 0
-2360z m1695 2193 c-5 -98 -3 -134 4 -123 6 9 11 68 11 138 l0 122 25 0 c20 0
25 -5 25 -26 0 -24 1 -24 17 -9 22 23 30 8 37 -75 7 -80 9 -92 20 -108 5 -8 4
-18 -2 -24 -13 -13 -4 -38 13 -38 7 0 18 7 25 15 7 9 8 15 2 15 -5 0 -8 8 -6
18 3 9 -4 27 -15 39 -19 20 -19 21 -1 38 18 16 20 60 4 86 -6 11 23 49 37 49
5 0 5 -8 2 -17 -6 -15 -4 -16 8 -6 24 19 59 5 59 -23 0 -14 -7 -27 -15 -30
-11 -5 -13 -10 -5 -19 9 -10 50 -28 50 -21 0 0 -4 15 -9 32 -5 18 -5 37 0 45
6 10 9 11 9 2 0 -7 5 -13 11 -13 5 0 8 4 5 9 -10 15 25 6 35 -10 8 -12 10 -12
18 0 8 12 12 12 25 -2 9 -8 16 -24 15 -34 0 -16 -1 -16 -8 2 -6 14 -19 20 -46
22 -20 1 -35 -1 -31 -4 3 -3 1 -12 -5 -20 -9 -10 -8 -13 6 -13 9 0 25 -10 36
-22 16 -20 20 -21 28 -8 9 12 11 12 17 -3 3 -9 4 -27 1 -38 -3 -12 -3 -18 0
-15 16 16 30 -17 25 -59 -3 -30 -1 -45 7 -45 6 0 12 17 12 38 1 20 2 55 3 76
0 22 7 41 14 43 7 3 10 -1 6 -11 -8 -21 4 -66 17 -66 19 0 38 27 33 47 -7 25
20 38 36 18 8 -10 8 -19 0 -34 -7 -14 -7 -21 0 -21 5 0 10 -4 10 -10 0 -5 -6
-10 -14 -10 -8 0 -17 -7 -20 -16 -9 -23 -7 -34 4 -34 6 0 10 5 10 11 0 6 6 17
14 25 8 7 17 19 19 26 4 10 8 9 16 -2 9 -13 14 -13 32 -2 19 12 20 11 11 -4
-7 -13 -6 -22 4 -32 10 -10 11 -19 4 -32 -14 -26 -13 -30 9 -30 14 0 20 10 25
43 4 24 4 51 0 60 -5 13 -2 16 10 11 9 -3 16 -1 16 5 0 6 4 11 9 11 5 0 12
-18 16 -40 4 -22 11 -38 15 -35 14 8 50 -18 50 -35 0 -10 -7 -7 -20 10 -17 22
-21 23 -33 10 -20 -20 -11 -86 9 -69 10 8 11 16 3 30 -11 21 -9 22 15 13 10
-4 17 -20 17 -43 l2 -36 6 39 c6 37 31 64 31 34 0 -7 7 -26 16 -43 10 -19 11
-31 5 -33 -6 -2 -11 -19 -11 -37 0 -18 -6 -36 -12 -38 -8 -3 -7 -6 4 -6 9 -1
20 -6 24 -12 4 -8 -1 -9 -17 -4 -23 7 -23 6 -5 -8 15 -11 23 -12 32 -3 6 6 10
14 7 19 -2 4 0 7 6 7 6 0 8 7 5 15 -5 11 -2 13 10 9 20 -8 21 3 1 22 -19 20
-19 35 0 28 20 -8 53 25 36 36 -11 6 -11 9 -1 15 8 5 18 1 25 -8 7 -9 15 -14
18 -10 4 3 7 -12 7 -34 0 -27 5 -43 15 -47 10 -4 15 -21 16 -58 l2 -53 7 40
c4 23 8 -39 9 -152 l1 -192 84 -25 c101 -31 169 -33 212 -7 43 26 80 77 94
130 14 54 10 207 -6 241 -56 113 -58 116 -36 97 12 -11 22 -14 26 -8 4 5 2 12
-4 16 -12 8 -13 55 -1 55 11 0 25 -48 22 -74 -2 -15 0 -16 12 -5 7 7 13 24 11
36 -1 13 2 23 7 23 18 0 9 -59 -12 -79 -15 -14 -17 -21 -8 -26 8 -6 10 -4 4 5
-6 10 -4 12 9 7 10 -4 15 -3 11 3 -8 13 6 13 25 0 13 -9 13 -11 1 -19 -13 -8
-13 -12 -1 -27 12 -13 14 -58 12 -226 -1 -117 2 -217 7 -227 11 -20 89 -47
102 -34 4 4 11 120 14 256 5 229 7 250 25 270 13 13 20 16 20 7 0 -7 2 -11 5
-8 3 3 1 16 -4 29 -8 23 8 54 23 43 3 -2 2 2 -4 8 -5 7 -26 12 -45 11 -19 -1
-38 3 -41 8 -3 5 3 6 13 3 16 -5 16 -4 2 5 -9 6 -33 15 -55 20 -54 14 -135 41
-157 52 -16 8 -255 89 -264 89 -2 0 -2 -4 1 -9 4 -5 -3 -7 -15 -4 -13 4 -16 8
-10 13 7 3 -127 53 -296 109 -170 57 -310 105 -312 107 -3 3 886 4 1974 4
1412 -1 1983 -4 1992 -12 9 -7 17 -7 27 1 20 16 79 10 88 -9 5 -12 7 -11 7 3
1 28 35 16 40 -13 l4 -25 6 24 c4 14 12 26 19 29 7 2 10 -2 6 -12 -8 -20 3
-21 22 -1 9 8 19 15 24 15 5 0 7 -7 4 -15 -4 -8 -11 -15 -16 -15 -6 0 -7 -8
-4 -17 4 -9 2 -20 -5 -23 -7 -5 -4 -9 9 -12 15 -4 18 -1 14 17 -6 35 26 65 70
65 21 0 38 -4 38 -9 0 -5 7 -12 16 -15 12 -4 15 -2 10 9 -4 10 1 15 14 15 14
0 18 -5 13 -17 -7 -17 -6 -17 11 0 9 9 23 17 29 17 25 0 57 -13 52 -20 -3 -4
1 -10 9 -13 8 -3 17 0 20 8 3 8 0 15 -6 17 -5 2 9 4 33 5 25 1 47 -3 51 -10 6
-9 10 -9 16 -1 9 15 63 15 81 0 12 -8 13 -8 7 2 -5 8 -1 12 13 12 11 0 23 -5
27 -11 4 -8 9 -8 17 0 6 6 28 11 49 11 l38 0 0 -840 0 -839 -42 15 c-43 16
-247 22 -269 8 -6 -3 -24 -7 -42 -9 -18 -1 -56 -6 -84 -10 l-53 -8 0 87 c0 47
-4 86 -9 86 -12 0 -2 -311 10 -325 6 -5 9 -4 9 3 0 7 9 12 21 12 11 0 18 4 14
9 -3 6 3 15 12 21 17 11 17 11 -1 6 -34 -11 -75 61 -46 79 6 4 51 6 100 6 71
0 88 3 84 14 -5 11 1 12 28 5 46 -14 58 -12 52 5 -4 8 -1 15 5 15 6 0 11 -10
11 -22 0 -17 3 -19 9 -9 5 7 14 10 20 7 6 -4 11 0 11 8 0 9 5 16 11 16 7 0 9
-10 7 -25 -3 -14 -1 -25 3 -25 5 0 9 7 9 15 0 8 5 15 10 15 6 0 10 -8 10 -17
0 -14 2 -15 9 -4 7 11 13 9 30 -8 11 -11 32 -21 46 -21 l25 0 0 -160 c0 -103
-4 -160 -10 -160 -6 0 -97 23 -203 51 -106 28 -209 55 -230 60 -29 8 -37 14
-33 27 3 9 1 24 -4 32 -8 12 -10 9 -10 -12 0 -16 -3 -28 -8 -28 -21 0 -222 50
-257 64 l-40 16 51 -4 c32 -3 56 0 64 7 10 9 11 9 6 0 -5 -10 2 -12 25 -9 18
2 35 8 37 15 2 6 8 8 13 5 6 -3 16 0 24 6 11 9 15 9 15 1 0 -6 5 -11 11 -11 6
0 9 7 5 15 -3 8 -1 15 4 15 6 0 10 4 10 9 0 5 -10 7 -22 3 -14 -3 -19 -2 -14
6 9 15 43 16 49 2 3 -6 4 -5 3 2 -4 18 -108 15 -275 -7 l-135 -18 50 -13 c27
-7 53 -13 58 -14 5 0 7 -2 4 -5 -3 -3 -32 2 -64 11 -32 9 -97 24 -144 34 -47
10 -155 36 -240 58 -85 23 -252 66 -370 96 -118 31 -249 65 -290 76 -41 12
-91 25 -110 30 -136 32 -988 247 -1085 274 -66 19 -154 42 -195 51 -41 9 -138
34 -215 55 -156 42 -176 47 -229 56 -20 3 -53 12 -73 20 -35 15 -46 18 -148
34 -53 8 -87 18 -202 56 -39 13 -87 24 -107 24 -19 0 -38 5 -41 10 -4 6 -15 8
-25 5 -10 -3 -21 -1 -24 4 -4 5 -19 8 -34 7 -15 -2 -34 0 -42 5 -42 21 -105
39 -140 39 -22 0 -40 5 -40 11 0 5 -5 7 -10 4 -5 -3 -16 -3 -22 2 -14 8 -28
11 -70 15 -16 1 -28 5 -28 9 0 7 -46 20 -89 25 -13 2 -29 8 -35 14 -13 13 -29
13 -21 0 3 -6 -4 -10 -17 -10 -19 0 -20 2 -8 10 11 8 9 9 -10 5 -18 -4 -34 0
-52 14 -15 12 -41 21 -60 21 -22 0 -29 -3 -19 -9 27 -18 -6 -17 -49 1 l-45 19
40 -7 c65 -10 30 9 -58 32 l-82 21 -3 42 c-2 22 -8 41 -13 41 -6 0 -8 -4 -5
-8 3 -5 -2 -26 -10 -48 -13 -36 -14 -23 -11 169 2 114 0 207 -5 207 -4 0 -9
-39 -9 -87 -1 -49 -2 -92 -4 -98 -1 -5 -3 -45 -3 -88 l-2 -78 -35 -15 c-39
-16 -42 -19 -19 -28 8 -3 12 -2 9 4 -3 6 -2 10 4 10 5 0 16 3 25 6 12 5 16 0
16 -20 0 -29 -16 -35 -23 -8 -4 13 -5 12 -6 -4 -1 -22 -19 -34 -48 -34 -8 0
-29 -7 -46 -15 -71 -33 -233 -86 -249 -82 -10 3 -16 2 -14 -2 4 -6 -324 -119
-527 -182 -38 -12 -67 -23 -65 -25 9 -9 318 86 687 210 303 102 300 102 427
67 21 -6 80 -20 129 -32 134 -31 195 -51 188 -62 -4 -6 0 -8 10 -4 8 3 21 -1
27 -9 7 -8 9 -14 4 -14 -5 0 -2 -5 6 -10 11 -7 3 -8 -25 -5 -38 4 -200 35
-275 53 -23 6 -47 4 -70 -4 l-35 -13 40 5 c36 5 114 -11 327 -67 62 -16 44
-40 -53 -70 -108 -35 -95 -35 43 -4 61 14 115 24 122 21 6 -2 2 -5 -8 -5 -11
-1 -17 -4 -13 -7 3 -3 39 2 81 11 63 14 78 15 89 3 8 -7 77 -29 155 -48 78
-19 137 -37 130 -40 -7 -4 -77 -21 -155 -40 -78 -19 -140 -37 -138 -40 3 -4
-8 -5 -23 -3 -21 4 -24 2 -12 -6 13 -9 12 -11 -5 -12 -44 -3 -86 4 -238 37
-173 37 -179 38 -157 24 12 -8 9 -10 -11 -10 -15 0 -30 -7 -33 -16 -4 -10 -12
-14 -22 -10 -9 4 -27 0 -39 -8 -12 -8 -38 -13 -59 -11 -23 2 -39 -1 -42 -9 -3
-7 -16 -11 -34 -8 -22 3 -27 8 -22 21 5 15 4 15 -11 -1 -9 -9 -17 -21 -17 -26
0 -17 -40 -1 -51 20 -8 15 -17 17 -45 12 -18 -3 -34 -2 -34 2 0 5 36 18 80 28
44 10 79 21 77 23 -3 2 -35 -1 -73 -7 -95 -16 -154 -20 -129 -11 19 8 19 8 -2
15 -15 5 -31 2 -45 -8 -12 -9 -29 -16 -38 -16 -12 1 -12 3 3 11 21 12 22 25 3
32 -10 4 -13 1 -9 -8 4 -11 -2 -14 -21 -13 -14 1 -26 6 -26 10 0 4 -5 8 -10 8
-6 0 -9 -5 -8 -12 2 -6 -6 -14 -17 -16 -17 -4 -18 -2 -6 12 11 14 11 16 -2 16
-9 0 -19 -4 -22 -10 -3 -5 -14 -10 -23 -10 -10 0 -13 3 -7 8 15 11 15 42 -1
42 -8 0 -14 -7 -14 -15 0 -8 -7 -15 -15 -15 -9 0 -15 7 -13 16 2 10 -3 19 -11
22 -9 3 -11 -1 -6 -17 6 -19 2 -21 -37 -23 -24 -1 -56 -1 -73 -1 -16 1 -22 -1
-12 -4 9 -2 15 -8 12 -13 -3 -5 -12 -7 -20 -3 -11 4 -15 -2 -15 -23 0 -26 -1
-27 -14 -9 -8 11 -12 23 -10 27 7 10 -42 21 -56 13 -8 -5 -8 -11 -1 -19 16
-19 4 -25 -37 -20 -36 5 -36 5 -17 -12 20 -16 20 -16 -5 -10 -14 4 -39 9 -56
12 -30 6 -30 6 -26 -32 3 -30 1 -36 -8 -28 -7 7 -13 24 -13 38 -1 14 -7 28
-14 30 -7 3 -10 -1 -6 -11 3 -8 0 -19 -8 -24 -11 -7 -10 -9 5 -9 16 0 15 -3
-8 -21 -21 -17 -29 -19 -41 -9 -20 16 -19 3 0 -16 8 -9 20 -12 25 -9 6 4 17 2
25 -5 9 -8 15 -8 20 0 9 15 27 1 21 -16 -4 -11 -2 -12 14 -4 30 16 63 13 56
-6 -4 -11 1 -18 14 -21 11 -3 18 -9 15 -13 -3 -4 26 -13 63 -20 74 -14 113
-29 75 -30 -12 0 -57 -5 -100 -12 -58 -9 -72 -13 -53 -18 19 -5 10 -9 -37 -14
-110 -14 -161 -14 -156 0 3 8 -13 14 -48 19 -29 4 -46 10 -39 15 7 4 0 10 -20
14 -35 6 -54 0 -45 -15 4 -5 -1 -9 -10 -9 -9 0 -13 -4 -10 -10 3 -5 -3 -10
-14 -10 -12 0 -21 5 -21 10 0 6 -5 10 -11 10 -5 0 -7 -4 -4 -10 4 -6 -6 -10
-24 -10 -16 0 -31 3 -34 8 -2 4 -2 2 -1 -5 2 -7 -1 -15 -7 -18 -15 -10 -99
-13 -99 -4 0 4 -21 6 -46 5 -26 -2 -81 4 -123 11 -42 8 -95 17 -118 20 l-43 5
0 694 0 694 846 0 846 0 -7 -137z m95 127 c0 -5 -4 -10 -10 -10 -5 0 -10 5
-10 10 0 6 5 10 10 10 6 0 10 -4 10 -10z m290 -100 c0 -5 -7 -10 -16 -10 -8 0
-12 5 -9 10 3 6 10 10 16 10 5 0 9 -4 9 -10z m80 0 c0 -5 -4 -10 -10 -10 -5 0
-10 5 -10 10 0 6 5 10 10 10 6 0 10 -4 10 -10z m160 -58 c-5 -2 -10 -10 -10
-17 0 -19 -27 -26 -34 -9 -9 24 -7 31 11 49 16 16 17 16 30 -1 9 -12 10 -20 3
-22z m490 -93 c0 -5 -4 -9 -10 -9 -5 0 -10 7 -10 16 0 8 5 12 10 9 6 -3 10
-10 10 -16z m-206 -15 c5 -14 4 -15 -9 -4 -17 14 -19 20 -6 20 5 0 12 -7 15
-16z m-80 -10 c3 -8 2 -12 -4 -9 -6 3 -10 10 -10 16 0 14 7 11 14 -7z m72 -78
c3 -28 1 -37 -7 -29 -14 14 -29 82 -22 101 8 20 24 -19 29 -72z m564 14 c13
-8 13 -10 -2 -10 -9 0 -20 5 -23 10 -8 13 5 13 25 0z m-109 -23 c-10 -9 -11
-8 -5 6 3 10 9 15 12 12 3 -3 0 -11 -7 -18z m106 -3 c-3 -3 -12 -4 -19 -1 -8
3 -5 6 6 6 11 1 17 -2 13 -5z m61 -33 c-15 -5 -21 7 -13 26 7 17 8 17 15 -2 4
-11 3 -22 -2 -24z m-28 -5 c0 -11 -19 -15 -25 -6 -3 5 1 10 9 10 9 0 16 -2 16
-4z m111 -18 c11 -21 11 -22 -4 -9 -10 7 -17 17 -17 22 0 15 9 10 21 -13z
m-428 -51 c-3 -4 1 -15 8 -24 11 -13 10 -17 -4 -28 -9 -7 -17 -16 -17 -20 0
-4 6 -2 14 4 10 8 16 9 21 1 3 -5 1 -10 -4 -10 -6 0 -11 -5 -11 -12 0 -30 24
15 26 48 0 22 -2 30 -7 22 -7 -10 -9 -10 -9 0 0 21 30 26 50 7 56 -50 67 -198
18 -240 -22 -19 -41 -22 -95 -16 -10 1 -13 38 -13 151 0 129 2 149 14 138 8
-7 12 -17 9 -21z m-1048 -275 c-2 -2 -17 -1 -32 3 -15 5 -32 7 -36 6 -5 -1 -6
3 -3 8 4 5 20 5 41 -2 19 -6 33 -12 30 -15z m976 -266 c41 -5 131 -27 238 -58
57 -17 70 -24 55 -30 -12 -5 -3 -6 24 -3 50 6 92 -2 92 -19 0 -8 13 -11 36 -8
24 3 34 1 30 -6 -3 -5 -16 -8 -28 -4 -14 3 -19 2 -14 -6 4 -7 25 -12 47 -12
22 0 39 -5 39 -11 0 -14 -103 -3 -108 12 -2 5 -14 6 -27 3 -12 -3 -26 -1 -29
5 -4 5 -28 13 -54 17 -58 8 -198 40 -211 48 -5 4 -36 11 -68 17 -78 14 -93 19
-93 30 0 6 6 7 13 3 10 -6 10 -4 0 7 -18 19 -16 31 5 25 9 -3 33 -8 53 -10z
m-71 -10 c0 -11 -19 -15 -25 -6 -3 5 1 10 9 10 9 0 16 -2 16 -4z m-1510 -108
c0 -3 -9 -4 -20 -1 -16 4 -18 8 -9 20 10 11 14 11 20 1 5 -7 9 -16 9 -20z
m154 10 c-3 -4 -9 -8 -15 -8 -5 0 -9 4 -9 8 0 5 7 9 15 9 8 0 12 -4 9 -9z m93
-14 c-3 -3 -12 -4 -19 -1 -8 3 -5 6 6 6 11 1 17 -2 13 -5z m-442 -14 c3 -5 2
-10 -4 -10 -5 0 -13 5 -16 10 -3 6 -2 10 4 10 5 0 13 -4 16 -10z m1442 4 c-3
-3 -12 -4 -19 -1 -8 3 -5 6 6 6 11 1 17 -2 13 -5z m-1270 -10 c-3 -3 -12 -4
-19 -1 -8 3 -5 6 6 6 11 1 17 -2 13 -5z m2170 -5 c-9 -6 -15 -14 -12 -20 4 -5
-1 -9 -9 -9 -18 0 -19 2 -10 24 3 9 16 16 28 16 19 -1 19 -2 3 -11z m-2502 -8
c3 -5 1 -12 -5 -16 -5 -3 -10 1 -10 9 0 18 6 21 15 7z m119 0 c3 -5 -1 -11 -9
-14 -9 -4 -12 -1 -8 9 6 16 10 17 17 5z m561 -1 c13 -6 5 -7 -25 -3 -25 3 -47
7 -49 9 -9 8 55 2 74 -6z m65 0 c0 -5 -4 -10 -10 -10 -5 0 -10 5 -10 10 0 6 5
10 10 10 6 0 10 -4 10 -10z m1808 -8 c6 -18 -15 -14 -22 4 -4 10 -1 14 6 12 6
-2 14 -10 16 -16z m-1998 -2 c-8 -5 -22 -9 -30 -9 -10 0 -8 3 5 9 27 12 43 12
25 0z m-385 -10 c3 -5 2 -10 -4 -10 -5 0 -13 5 -16 10 -3 6 -2 10 4 10 5 0 13
-4 16 -10z m325 0 c-8 -5 -24 -9 -35 -9 l-20 0 20 9 c11 5 27 9 35 9 13 1 13
0 0 -9z m2120 -10 c0 -5 -15 -9 -32 -9 l-33 1 30 8 c17 4 31 8 33 9 1 0 2 -3
2 -9z m-2477 -7 c-7 -2 -19 -2 -25 0 -7 3 -2 5 12 5 14 0 19 -2 13 -5z m257
-3 c0 -5 -8 -10 -17 -10 -15 0 -16 2 -3 10 19 12 20 12 20 0z m-450 -20 c0 -5
-5 -10 -11 -10 -5 0 -7 5 -4 10 3 6 8 10 11 10 2 0 4 -4 4 -10z m3158 -134 c9
-2 52 -12 95 -22 42 -10 77 -21 77 -24 0 -7 -147 -34 -323 -62 -71 -11 -85
-10 -177 12 -105 25 -109 33 -25 45 28 4 64 13 80 21 17 8 77 23 134 34 57 11
107 22 110 26 3 3 7 -1 9 -10 2 -8 11 -17 20 -20z m276 -28 c-12 -5 -2 -6 25
-3 30 4 47 2 53 -7 5 -9 8 -9 8 -1 0 8 16 7 58 -4 68 -18 83 -28 27 -20 l-40
6 35 -14 c34 -14 34 -15 5 -10 -16 3 -39 7 -50 10 -11 3 -60 14 -109 25 -49
11 -91 22 -93 24 -2 2 19 3 48 3 36 -1 46 -3 33 -9z m-3681 -25 c-7 -2 -21 -2
-30 0 -10 3 -4 5 12 5 17 0 24 -2 18 -5z m3820 -47 c42 -10 77 -21 77 -26 0
-8 -6 -9 -229 -45 l-153 -24 -89 21 c-49 12 -89 25 -89 29 0 4 80 19 178 34
97 16 186 31 197 35 11 4 22 4 25 1 3 -4 40 -15 83 -25z m130 17 c-7 -2 -19
-2 -25 0 -7 3 -2 5 12 5 14 0 19 -2 13 -5z m-4393 -153 c36 -5 171 -23 300
-39 356 -46 533 -70 980 -131 124 -17 355 -49 514 -70 159 -22 294 -44 299
-49 30 -30 -22 -421 -89 -671 -14 -52 -27 -113 -29 -135 -2 -22 -11 -73 -20
-114 -17 -71 -18 -73 -31 -50 -7 13 -13 32 -14 42 0 9 -4 17 -10 17 -15 0 -12
19 5 36 17 17 20 44 5 44 -5 0 -10 9 -10 20 0 15 7 20 25 20 28 0 42 25 52 90
4 19 10 38 16 41 5 4 6 12 2 18 -4 8 -11 9 -18 2 -13 -10 -61 21 -50 33 3 3
12 1 20 -6 19 -15 27 -4 14 21 -9 16 -18 19 -44 14 -40 -7 -39 -7 -39 -38 0
-18 -6 -25 -20 -25 -14 0 -18 -5 -15 -15 8 -19 -10 -30 -27 -16 -10 8 -16 8
-24 -2 -13 -15 -5 -30 25 -45 26 -15 50 -7 58 19 7 21 25 16 25 -7 0 -8 -11
-19 -25 -24 -30 -11 -33 -40 -5 -47 22 -6 28 -43 8 -44 -7 0 -21 -2 -30 -4
-10 -2 -20 1 -24 6 -9 15 -54 10 -54 -6 0 -19 44 -39 93 -43 14 -2 17 -9 13
-40 -4 -40 -9 -41 -65 -15 -27 12 -38 13 -57 3 -13 -7 -21 -18 -17 -24 3 -6 0
-5 -8 2 -7 6 -17 12 -21 12 -11 0 -4 -35 10 -52 6 -8 9 -17 7 -20 -3 -3 5 -4
17 -3 13 1 46 -4 73 -13 l50 -15 -40 -9 c-21 -5 -43 -14 -47 -21 -5 -8 -8 -6
-8 6 0 15 -5 17 -29 12 -19 -4 -34 -1 -44 9 -9 9 -20 16 -26 16 -6 0 -11 4
-11 10 0 5 8 6 18 3 9 -4 4 5 -12 18 -29 25 -29 26 -16 72 8 25 17 44 21 41 4
-2 5 5 2 16 -3 12 2 29 11 39 15 17 14 18 -10 29 -14 7 -31 9 -37 5 -9 -5 -9
-3 -1 8 8 10 8 23 -1 49 -10 31 -16 35 -50 38 -31 3 -37 1 -32 -12 7 -19 -4
-21 -21 -4 -14 14 -23 7 -25 -20 0 -11 -6 -18 -13 -15 -7 3 -14 -5 -16 -19 -2
-15 -9 -23 -21 -22 -20 2 -21 -1 -7 -27 15 -27 6 -24 -29 10 -17 16 -38 31
-47 33 -12 2 -6 10 22 28 28 18 40 33 42 54 3 24 1 28 -15 22 -14 -6 -16 -5
-5 5 18 19 15 29 -8 29 -19 0 -20 2 -6 35 14 33 14 35 -5 35 -10 0 -28 9 -38
19 -19 19 -19 20 -1 33 14 10 16 18 9 36 -9 25 -39 30 -39 7 0 -8 -5 -15 -11
-15 -6 0 -7 6 -2 13 4 6 -5 4 -19 -5 -15 -10 -28 -14 -30 -9 -2 5 -16 11 -33
13 -23 2 -29 -1 -27 -13 2 -12 -5 -16 -24 -16 -16 0 -34 -9 -43 -22 -11 -14
-23 -19 -39 -15 -26 7 -53 -11 -45 -32 4 -10 0 -12 -13 -7 -12 4 -15 3 -10 -5
4 -7 16 -12 27 -12 11 0 28 -7 37 -16 14 -15 17 -15 28 0 8 11 14 13 19 7 3
-6 -5 -16 -19 -23 -27 -12 -33 -23 -16 -33 6 -3 10 -1 10 4 0 6 5 11 11 11 6
0 9 -7 5 -15 -6 -18 5 -20 22 -3 9 9 9 5 0 -19 -12 -32 -47 -41 -56 -14 -3 9
0 11 8 6 9 -5 11 -4 6 3 -4 7 -20 10 -39 7 -29 -5 -30 -4 -14 9 26 20 18 47
-18 59 -41 14 -79 52 -72 71 5 12 -3 21 -28 33 -33 16 -35 15 -59 -8 -14 -13
-26 -29 -26 -34 0 -6 -22 -31 -49 -57 -27 -26 -46 -50 -42 -54 3 -4 0 -4 -7 0
-7 5 -11 14 -8 21 2 7 2 16 -2 20 -7 6 -8 11 -11 37 -2 20 -14 -1 -16 -26 0
-14 4 -22 11 -19 6 2 10 -6 9 -19 -1 -13 3 -26 8 -30 6 -3 -2 -5 -16 -5 -15 1
-27 5 -27 10 0 4 -18 7 -41 7 -32 0 -40 3 -35 15 5 14 -9 20 -42 16 -6 -1 -20
2 -29 7 -11 7 -1 9 35 8 43 -1 49 1 39 13 -9 11 -9 13 0 8 7 -5 16 1 23 13 11
21 8 23 -27 20 -13 -1 -23 4 -23 10 0 8 -9 10 -27 5 -59 -15 -63 -14 -63 6 0
10 -5 19 -11 19 -6 0 -9 -6 -6 -14 4 -9 0 -12 -13 -9 -10 3 -21 0 -24 -6 -4
-6 -12 -11 -17 -11 -6 0 -7 5 -3 12 4 7 3 8 -5 4 -6 -4 -11 -13 -10 -19 4 -32
-1 -38 -17 -23 -8 9 -13 20 -9 25 3 5 1 12 -5 16 -5 3 -10 1 -10 -6 0 -8 -5
-7 -17 2 -20 17 -17 18 -42 -5 -24 -22 -28 -41 -7 -33 9 3 21 -4 30 -19 9 -13
12 -24 7 -24 -5 0 -12 7 -15 16 -4 9 -13 14 -21 10 -8 -3 -15 0 -15 7 0 8 -4
7 -10 -3 -5 -8 -13 -11 -17 -6 -4 5 -2 11 5 13 6 3 12 12 12 21 0 12 -3 13
-12 4 -17 -17 -28 -15 -21 6 4 10 -4 6 -20 -11 -15 -15 -32 -25 -37 -22 -6 3
-10 1 -10 -4 0 -6 7 -11 16 -11 8 0 12 -5 9 -11 -4 -6 -14 -8 -22 -5 -8 3 -11
2 -8 -3 3 -5 1 -12 -4 -16 -6 -3 -8 -12 -4 -21 4 -11 9 -12 19 -3 9 7 14 8 14
1 0 -17 -30 -23 -36 -7 -4 8 -10 12 -15 9 -5 -3 -7 -9 -4 -14 3 -4 -3 -7 -13
-6 -11 1 -16 -5 -15 -19 1 -11 0 -14 -3 -7 -4 9 -10 10 -19 2 -8 -7 -21 -7
-37 -1 -19 7 -25 6 -25 -4 0 -8 4 -12 8 -10 4 3 5 -4 2 -15 -3 -12 0 -20 6
-20 7 0 9 -5 5 -11 -4 -8 -12 -2 -21 15 -8 15 -16 26 -17 24 -2 -1 -9 -14 -16
-27 -11 -21 -10 -23 3 -18 12 4 15 0 13 -21 -2 -16 -10 -28 -20 -30 -9 -2 -14
-8 -11 -13 4 -5 2 -9 -4 -9 -5 0 -13 9 -16 20 -8 26 -24 26 -22 1 0 -11 5 -17
9 -15 4 3 5 -2 2 -11 -5 -12 -13 -15 -28 -10 -11 4 -28 7 -36 7 -11 0 -17 10
-18 30 -2 25 0 29 11 20 16 -13 43 1 32 17 -3 7 -15 9 -26 6 -19 -6 -19 6 -19
539 l0 546 23 0 c12 0 51 -5 87 -10z m2695 -42 l60 -12 -45 -7 c-25 -4 -69 -8
-97 -8 -52 -1 -53 0 -53 28 0 28 1 29 38 20 20 -4 64 -14 97 -21z m-2117 5
c-10 -2 -28 -2 -40 0 -13 2 -5 4 17 4 22 1 32 -1 23 -4z m4506 -21 c3 -5 30
-14 61 -21 30 -7 55 -17 55 -22 0 -5 -5 -9 -10 -9 -6 0 -89 -9 -186 -20 l-176
-20 -84 22 c-46 12 -84 25 -84 29 0 4 42 10 93 14 50 4 137 13 192 20 128 16
133 17 139 7z m1492 -14 c4 -5 -4 -8 -19 -8 -14 0 -28 4 -31 8 -6 10 40 10 50
0z m-5268 -25 c-10 -2 -28 -2 -40 0 -13 2 -5 4 17 4 22 1 32 -1 23 -4z m4020
-23 c9 -5 37 -15 62 -21 l45 -12 -30 -8 c-16 -5 -97 -16 -179 -25 -142 -15
-154 -15 -233 2 -46 10 -83 22 -83 25 0 4 28 10 63 14 34 3 114 12 177 19 151
17 157 18 178 6z m-3595 -17 c-7 -2 -19 -2 -25 0 -7 3 -2 5 12 5 14 0 19 -2
13 -5z m1887 -67 c36 -9 90 -19 120 -21 60 -4 164 -26 176 -38 16 -16 -276 -7
-369 12 -50 10 -145 27 -209 36 -64 10 -115 22 -112 26 9 15 326 3 394 -15z
m-965 -11 c41 -10 45 -13 20 -14 -44 -1 -105 10 -105 20 0 12 24 10 85 -6z
m3391 -80 c16 -8 37 -15 46 -15 9 0 20 -4 23 -10 3 -5 21 -10 39 -10 34 0 94
-17 109 -30 5 -4 -44 -13 -108 -20 -75 -9 -111 -17 -103 -22 8 -6 -9 -8 -45
-5 -32 2 -52 0 -45 -4 10 -7 8 -9 -4 -9 -10 0 -18 4 -18 9 0 11 -41 22 -109
27 -30 2 -57 7 -60 10 -3 4 12 4 33 1 22 -4 45 -2 50 3 6 4 27 11 46 13 19 3
-5 3 -54 0 -65 -3 -103 1 -143 13 -29 9 -51 19 -48 23 3 3 83 13 178 22 95 9
175 17 178 18 4 0 20 -6 35 -14z m-3299 -75 c76 -10 273 -38 438 -60 651 -88
811 -110 835 -116 24 -5 24 -6 5 -17 -11 -6 -38 -12 -60 -13 -22 -1 -65 -9
-95 -17 -30 -9 -67 -19 -82 -22 -18 -3 -39 -23 -67 -66 -64 -96 -66 -95 106
-88 82 4 150 7 151 8 2 0 2 24 0 51 l-3 50 45 -2 c44 -1 44 -1 8 -5 -38 -4
-38 -5 -38 -49 l0 -46 128 8 c70 3 130 8 135 11 12 7 8 91 -5 96 -7 3 5 5 27
5 22 0 30 -3 18 -5 -20 -4 -23 -11 -23 -51 l0 -47 96 4 96 3 37 -36 c30 -29
49 -38 97 -46 32 -6 62 -10 67 -10 15 0 6 -40 -12 -49 -14 -8 -20 -7 -25 4 -3
9 -18 15 -36 15 -23 0 -30 -4 -30 -19 0 -28 11 -52 21 -45 14 8 10 -9 -6 -30
-20 -26 -20 -128 0 -166 9 -17 15 -32 15 -35 0 -3 16 -31 36 -62 20 -31 41
-67 47 -80 5 -13 14 -23 19 -23 4 0 8 -15 8 -34 0 -28 -5 -36 -30 -46 -28 -12
-29 -14 -13 -25 10 -8 15 -16 12 -19 -3 -4 -17 3 -32 14 -14 11 -29 20 -33 20
-4 0 -16 7 -26 17 -10 9 -20 14 -22 12 -2 -2 -6 -199 -7 -437 -4 -374 -6 -433
-19 -437 -8 -2 -87 -20 -176 -39 -160 -36 -223 -44 -195 -27 7 5 14 21 15 37
1 16 5 35 9 41 5 8 3 13 -5 13 -8 0 -9 3 -3 8 6 4 16 19 24 33 7 15 23 31 35
37 19 9 17 10 -19 17 -22 3 -49 10 -60 15 -11 5 -31 11 -45 14 -14 2 39 3 117
1 89 -2 141 1 137 7 -3 5 -16 8 -27 7 -36 -4 -217 12 -221 20 -3 4 15 6 39 6
24 -1 48 1 52 4 5 3 6 40 3 81 -3 41 -4 97 -2 124 l3 48 50 -4 c27 -3 49 -2
49 2 0 10 -52 20 -109 21 -25 0 -64 4 -86 8 -30 7 -10 9 82 10 115 1 123 2
134 23 11 20 12 20 24 4 11 -15 19 -16 52 -7 21 6 51 8 66 6 l27 -5 0 224 0
225 -35 -20 c-38 -23 -45 -31 -17 -23 16 5 15 5 -1 -6 -10 -6 -29 -14 -44 -16
-14 -3 -42 -13 -62 -23 -20 -10 -46 -22 -58 -25 -22 -7 -23 -5 -23 46 0 49 2
55 36 77 52 36 136 131 130 148 -3 8 -1 11 4 8 14 -9 40 57 40 101 0 38 -42
124 -61 124 -6 0 -7 -5 -3 -12 4 -7 3 -8 -5 -4 -6 4 -9 11 -6 16 9 14 -63 49
-145 70 -60 15 -108 20 -207 19 -126 -2 -127 -2 -53 -10 86 -10 158 -32 216
-65 22 -13 44 -22 47 -19 4 3 5 2 2 -1 -2 -4 8 -22 23 -42 23 -30 27 -45 26
-96 0 -65 -21 -116 -68 -168 -21 -23 -33 -28 -71 -28 l-47 0 25 30 c24 28 25
30 9 65 l-16 35 -22 -37 c-44 -76 -73 -103 -112 -103 l-35 0 42 43 c82 81 104
168 59 234 -41 59 -176 103 -317 103 -62 0 -270 -21 -336 -34 -38 -8 -14 3 45
20 l45 14 -45 -6 c-25 -4 -65 -13 -90 -21 -62 -21 -123 -26 -117 -10 2 6 13
11 24 10 22 -2 27 23 6 31 -24 10 -14 26 16 26 17 0 32 4 35 8 5 9 212 27 471
41 124 7 99 8 -145 6 -163 -2 -277 0 -255 4 22 5 33 9 25 10 -54 5 -558 61
-588 66 -30 4 -33 4 -14 -5 12 -5 40 -28 61 -50 l38 -40 83 0 c46 0 81 -2 78
-6 -3 -3 -41 -5 -83 -5 l-78 0 -46 45 c-56 55 -76 57 -243 25 -60 -11 -112
-19 -115 -16 -4 5 18 262 33 375 6 51 -1 50 191 22z m3888 -61 c5 -5 -17 -9
-58 -9 -47 0 -67 4 -67 13 0 14 109 11 125 -4z m144 -21 c24 -9 25 -11 6 -18
-16 -6 -13 -8 17 -14 41 -7 61 -26 29 -26 -10 0 -21 -5 -23 -12 -2 -6 -31 -15
-64 -19 -74 -9 -265 -10 -242 -1 22 9 -40 35 -129 53 -35 7 -60 16 -55 20 4 4
94 9 200 11 154 2 194 0 201 -10 5 -8 17 -12 27 -10 13 3 3 10 -31 23 -27 10
-54 22 -58 25 -11 10 87 -8 122 -22z m-1396 -63 c34 -8 85 -18 112 -22 41 -7
29 -9 -70 -11 -66 -2 -138 2 -160 7 -22 6 -64 13 -92 17 -29 3 -53 10 -53 15
0 15 196 10 263 -6z m1507 -5 c0 -5 -10 -10 -22 -9 -22 0 -22 1 -3 9 11 5 21
9 23 9 1 1 2 -3 2 -9z m-110 -49 c-22 -12 -155 -22 -177 -13 -11 4 9 9 57 13
125 9 136 9 120 0z m-2416 -36 c-4 -8 -10 -15 -15 -15 -5 0 -9 7 -9 15 0 8 7
15 15 15 9 0 12 -6 9 -15z m34 -32 c-10 -2 -26 -2 -35 0 -10 3 -2 5 17 5 19 0
27 -2 18 -5z m172 3 c0 -2 -9 -6 -20 -9 -11 -3 -18 -1 -14 4 5 9 34 13 34 5z
m53 -3 c-7 -2 -21 -2 -30 0 -10 3 -4 5 12 5 17 0 24 -2 18 -5z m-455 -20 c-15
-2 -42 -2 -60 0 -18 2 -6 4 27 4 33 0 48 -2 33 -4z m372 -49 c0 -19 -4 -34
-10 -34 -5 0 -10 18 -10 41 0 24 4 38 10 34 6 -3 10 -22 10 -41z m178 -54 l5
-80 33 0 c18 0 36 -4 39 -10 4 -6 -10 -10 -34 -10 -32 0 -41 -4 -41 -17 0 -10
-3 -13 -9 -7 -12 12 -19 226 -7 214 5 -5 11 -45 14 -90z m262 90 c0 -5 -2 -10
-4 -10 -3 0 -8 5 -11 10 -3 6 -1 10 4 10 6 0 11 -4 11 -10z m-1033 -6 c-3 -3
-12 -4 -19 -1 -8 3 -5 6 6 6 11 1 17 -2 13 -5z m826 -1 c-7 -2 -19 -2 -25 0
-7 3 -2 5 12 5 14 0 19 -2 13 -5z m68 -12 c-11 -7 -12 -25 -6 -84 8 -86 1 -81
120 -91 151 -14 210 -16 187 -6 -13 6 -28 8 -33 5 -5 -4 -6 1 -3 10 5 12 9 13
20 4 10 -8 14 -8 14 0 0 6 5 11 11 11 5 0 8 -4 4 -9 -3 -6 13 -9 37 -8 38 2
43 -1 41 -18 -1 -11 0 -15 3 -8 4 8 11 6 25 -8 18 -18 19 -34 17 -276 0 -142
-4 -230 -7 -196 -3 34 -12 68 -19 75 -15 15 -227 28 -254 16 -9 -4 -20 -18
-24 -30 l-7 -22 -18 22 c-26 32 -59 127 -59 168 0 75 34 118 115 144 22 7 43
18 47 24 5 8 8 7 8 -1 0 -9 16 -13 48 -12 l47 1 -40 19 c-22 10 -46 17 -52 14
-8 -2 -13 4 -13 14 0 30 -42 35 -62 8 l-18 -22 -6 22 c-6 23 -36 39 -54 28 -5
-3 -10 -17 -10 -31 0 -15 -6 -24 -15 -24 -11 0 -14 7 -9 24 3 13 1 27 -5 31
-6 3 -9 10 -6 15 3 4 -2 10 -10 14 -8 3 -14 0 -12 -6 1 -6 -3 -12 -10 -15 -8
-3 -13 24 -15 97 -2 56 -1 104 1 106 2 2 11 4 20 4 13 0 13 -2 2 -9z m77 -8
c-10 -2 -26 -2 -35 0 -10 3 -2 5 17 5 19 0 27 -2 18 -5z m-114 -43 c4 -25 3
-31 -4 -20 -5 8 -10 26 -10 39 0 32 6 24 14 -19z m169 33 c-7 -2 -19 -2 -25 0
-7 3 -2 5 12 5 14 0 19 -2 13 -5z m86 -9 c10 -9 -45 -3 -59 6 -11 7 -5 8 20 4
19 -4 37 -8 39 -10z m237 1 c77 -8 184 -16 239 -19 155 -7 527 -35 560 -41 76
-15 125 -60 125 -114 0 -18 -6 -21 -47 -21 -79 -1 -665 -29 -669 -33 -2 -1
121 -43 272 -92 186 -60 278 -95 285 -106 13 -26 11 -107 -3 -111 -7 -3 -11
-18 -10 -36 2 -26 -1 -32 -18 -32 -12 0 -18 -4 -15 -10 3 -5 0 -10 -8 -10 -8
0 -20 -7 -27 -15 -15 -18 -30 -11 -30 15 0 10 -7 20 -15 24 -9 3 -12 12 -8 23
6 16 5 17 -12 3 -14 -11 -19 -12 -22 -2 -8 22 -20 13 -18 -13 2 -14 1 -25 -1
-25 -12 0 -64 31 -71 43 -8 14 -73 47 -92 47 -6 0 -11 5 -11 10 0 6 -3 9 -7 9
-5 -1 -18 -1 -31 0 -20 1 -21 3 -10 21 10 16 10 24 1 39 -10 16 -10 20 3 23
22 5 -50 106 -81 114 -14 3 -25 10 -25 16 0 5 -9 6 -20 3 -12 -4 -28 -1 -37 7
-14 11 -16 11 -8 -2 8 -13 6 -13 -8 -2 -9 8 -21 11 -27 7 -5 -3 -10 -2 -10 3
0 12 -40 9 -67 -6 -19 -11 -23 -10 -23 3 0 8 -4 15 -10 15 -5 0 -10 -4 -10
-10 0 -5 -9 -10 -20 -10 -17 0 -20 7 -20 48 -1 70 -39 111 -114 121 -31 4 -58
10 -60 12 -2 2 -1 30 1 62 6 67 -11 62 179 42z m-706 -10 c0 -8 -2 -15 -4 -15
-2 0 -6 7 -10 15 -3 8 -1 15 4 15 6 0 10 -7 10 -15z m420 -40 c0 -19 -2 -35
-4 -35 -2 0 -6 16 -8 35 -2 19 0 35 4 35 4 0 8 -16 8 -35z m-2134 -31 l41 -44
75 0 75 0 -16 -75 -15 -75 -23 28 c-30 39 -60 49 -172 61 -108 12 -127 6 -181
-55 -47 -54 -77 -125 -104 -246 -5 -21 -12 -28 -31 -28 -24 0 -25 -3 -26 -62
-1 -53 -2 -57 -8 -28 -4 20 -10 40 -13 45 -3 6 5 115 18 244 23 227 28 250 59
251 6 0 57 9 115 19 135 24 155 21 206 -35z m4014 -29 l0 -55 -78 0 c-44 0
-134 -3 -200 -7 l-122 -6 0 56 0 56 48 3 c26 2 116 4 200 6 l152 3 0 -56z
m-5626 14 c-3 -5 -1 -16 5 -23 9 -10 2 -19 -29 -40 -35 -23 -80 -35 -80 -21 0
11 36 45 48 45 7 0 15 8 19 18 10 27 24 42 34 36 5 -3 7 -10 3 -15z m1983 5
c-3 -3 -12 -4 -19 -1 -8 3 -5 6 6 6 11 1 17 -2 13 -5z m61 -1 c-10 -2 -26 -2
-35 0 -10 3 -2 5 17 5 19 0 27 -2 18 -5z m49 1 c-3 -3 -12 -4 -19 -1 -8 3 -5
6 6 6 11 1 17 -2 13 -5z m-2847 -54 c0 -5 -2 -10 -4 -10 -3 0 -8 5 -11 10 -3
6 -1 10 4 10 6 0 11 -4 11 -10z m22 -35 c3 3 8 -3 10 -13 4 -15 0 -19 -23 -19
-19 0 -29 5 -29 15 0 16 -14 8 -16 -9 -1 -5 -2 -13 -3 -17 -2 -13 -51 -34 -51
-22 0 6 -4 10 -9 10 -5 0 -7 -8 -4 -19 4 -16 0 -18 -26 -15 -17 2 -31 -1 -31
-7 0 -6 5 -7 10 -4 6 3 10 0 10 -8 0 -8 -8 -17 -17 -20 -10 -2 -26 -8 -35 -12
-14 -5 -18 -2 -18 13 0 11 -6 22 -12 25 -7 2 -10 7 -6 11 3 4 16 3 27 -3 17
-10 20 -9 15 4 -4 8 -16 15 -28 15 -17 0 -18 2 -6 10 20 13 60 13 60 0 0 -5 5
-10 11 -10 6 0 8 8 4 19 -5 17 -2 18 30 11 19 -4 35 -6 35 -4 0 14 -3 19 -11
17 -5 -2 -9 2 -9 8 0 6 7 8 15 5 9 -3 18 1 21 9 4 8 12 15 20 15 8 0 14 5 14
10 0 6 10 4 23 -5 13 -8 26 -13 29 -10z m4278 5 c0 -5 -7 -10 -16 -10 -8 0
-12 5 -9 10 3 6 10 10 16 10 5 0 9 -4 9 -10z m-4520 -24 c0 -3 -4 -8 -10 -11
-5 -3 -10 -1 -10 4 0 6 5 11 10 11 6 0 10 -2 10 -4z m4060 0 c0 -3 -4 -8 -10
-11 -5 -3 -10 -1 -10 4 0 6 5 11 10 11 6 0 10 -2 10 -4z m-44 -24 c-10 -2 -22
0 -28 6 -6 6 0 7 19 4 21 -5 23 -7 9 -10z m483 11 c22 -6 23 -8 16 -72 -3 -36
-6 -85 -6 -108 0 -47 -5 -49 -67 -37 l-30 6 0 109 0 109 31 0 c18 0 43 -3 56
-7z m-4169 -13 c0 -5 -4 -10 -9 -10 -6 0 -13 5 -16 10 -3 6 1 10 9 10 9 0 16
-4 16 -10z m2175 -14 c35 -35 63 -97 77 -170 7 -36 16 -66 20 -66 4 0 5 -13 2
-29 -6 -29 -5 -30 41 -33 l47 -3 4 -57 4 -56 -63 -9 c-52 -7 -62 -11 -59 -27
2 -10 -1 -15 -6 -12 -6 3 -13 -1 -16 -10 -4 -10 -2 -13 7 -8 6 4 -4 -10 -23
-30 -47 -50 -99 -65 -146 -43 -19 10 -33 21 -30 26 6 8 -20 37 -39 43 -5 2 -9
7 -7 11 7 22 -21 47 -52 47 -32 0 -34 1 -39 47 -6 58 -1 73 28 73 19 0 23 7
29 51 11 82 53 174 105 229 53 56 79 62 116 26z m2065 5 c0 -4 -4 -11 -10 -17
-5 -5 -11 -47 -13 -94 -3 -84 -3 -84 -5 22 -2 92 0 107 13 102 8 -4 15 -9 15
-13z m-2930 -1 c0 -5 -2 -10 -4 -10 -3 0 -8 5 -11 10 -3 6 -1 10 4 10 6 0 11
-4 11 -10z m1345 1 c-16 -14 -55 -23 -55 -12 0 8 16 14 55 20 5 0 5 -2 0 -8z
m1079 1 c3 -5 -1 -9 -9 -9 -8 0 -15 4 -15 9 0 4 4 8 9 8 6 0 12 -4 15 -8z
m-615 -12 c112 -15 202 -67 217 -126 16 -63 -47 -156 -160 -235 -111 -79 -262
-156 -356 -184 -20 -6 -23 -5 -13 5 9 10 8 16 -3 27 -8 8 -12 18 -9 23 3 4 -2
10 -10 14 -18 7 -20 57 -3 74 8 8 8 12 1 12 -10 0 -26 36 -24 52 0 4 -8 12
-19 18 -15 8 -20 8 -20 -2 0 -9 -3 -9 -9 2 -12 18 -2 35 12 21 14 -14 30 -15
22 -1 -3 5 9 9 29 8 40 -1 66 16 66 44 0 17 -7 19 -75 16 -41 -2 -75 0 -75 5
0 4 17 8 38 8 20 1 51 3 67 4 17 2 38 3 48 4 11 1 17 8 15 17 -2 10 3 19 11
22 10 3 12 0 8 -12 -4 -9 -2 -16 3 -16 6 0 10 4 10 9 0 5 3 17 6 26 6 15 -3
16 -80 13 -47 -2 -86 0 -86 5 0 10 -42 9 -60 -2 -8 -6 -19 -7 -24 -3 -6 3 0 9
14 13 l25 7 -24 1 c-24 1 -24 1 -5 17 19 15 19 15 -2 11 -15 -3 -20 1 -20 17
1 17 -4 20 -26 18 -52 -5 -28 6 50 23 122 28 283 53 337 54 28 0 83 -4 124 -9z
m-3109 -4 c0 -2 -7 -7 -16 -10 -8 -3 -12 -2 -9 4 6 10 25 14 25 6z m160 0 c0
-3 -4 -8 -10 -11 -5 -3 -10 -1 -10 4 0 6 5 11 10 11 6 0 10 -2 10 -4z m460
-13 c0 -6 -9 -9 -22 -6 -19 4 -20 3 -8 -6 13 -9 13 -11 -1 -11 -9 0 -19 8 -21
18 -4 14 1 18 23 17 16 0 29 -5 29 -12z m-550 3 c0 -3 -4 -8 -10 -11 -5 -3
-10 -1 -10 4 0 6 5 11 10 11 6 0 10 -2 10 -4z m6190 -22 c0 -24 -2 -25 -59
-23 -43 2 -64 7 -75 20 -14 17 -12 18 37 22 29 2 62 4 75 5 17 2 22 -3 22 -24z
m-4920 6 c0 -5 -11 -10 -25 -10 -14 0 -25 5 -25 10 0 6 11 10 25 10 14 0 25
-4 25 -10z m2404 -24 c-3 -9 -10 -13 -16 -10 -5 3 -4 12 3 20 15 18 22 13 13
-10z m1056 -8 c0 -5 -7 -8 -15 -8 -17 0 -18 2 -9 25 5 13 8 14 15 3 5 -7 9
-16 9 -20z m-5138 -29 c3 -21 1 -28 -8 -25 -8 3 -11 0 -7 -10 3 -7 9 -14 15
-14 5 0 6 -5 3 -11 -5 -6 -13 -3 -22 10 -21 30 -45 28 -33 -3 5 -15 5 -27 -3
-35 -8 -8 -6 -11 10 -11 25 0 66 -70 57 -97 -5 -17 -5 -17 6 0 14 21 32 23 24
2 -5 -11 -2 -13 11 -9 11 4 15 14 11 26 -2 11 -2 17 2 14 3 -4 14 14 24 40 14
36 16 49 7 60 -10 12 -9 13 5 8 11 -4 25 1 37 15 29 31 70 25 88 -14 8 -16 19
-65 25 -107 10 -76 11 -78 38 -78 28 0 28 0 28 -70 l0 -70 -40 0 c-34 0 -42
-4 -55 -30 -17 -33 -43 -50 -75 -50 -18 0 -21 -5 -19 -45 2 -29 6 -42 13 -36
6 4 25 8 43 9 l32 2 -12 -32 c-8 -25 -12 -28 -15 -15 -3 16 -12 18 -53 15
l-49 -3 0 70 c0 89 -7 115 -31 115 -25 0 -24 -17 1 -25 17 -5 20 -14 18 -58
l-2 -52 -3 47 c-3 33 -10 51 -22 57 -14 8 -17 21 -14 79 3 55 1 69 -11 69 -11
0 -13 -5 -5 -18 13 -25 12 -28 -12 -22 -16 4 -17 8 -7 14 10 7 10 9 1 9 -7 0
-13 7 -13 15 0 8 -7 15 -16 15 -12 0 -14 3 -6 13 6 7 7 18 3 25 -9 15 -61 -6
-61 -25 0 -7 -7 -10 -15 -7 -8 4 -15 12 -15 20 0 8 7 14 15 14 17 0 20 16 5
25 -18 11 -10 23 15 21 23 -1 37 -16 15 -16 -5 0 -10 -4 -10 -9 0 -5 9 -7 19
-4 24 6 20 38 -5 38 -13 0 -18 7 -17 20 2 11 3 31 4 45 2 29 18 80 32 98 8 11
12 11 19 0 7 -9 8 -4 5 15 -3 21 -1 25 8 17 7 -6 15 -24 17 -41z m4069 7 c11
6 11 -4 -1 -31 -8 -19 -9 -19 -9 2 -1 12 -6 25 -12 29 -8 4 -9 0 -4 -15 4 -12
2 -21 -4 -21 -12 0 -14 23 -4 60 l7 24 9 -27 c5 -15 13 -25 18 -21z m-3671 30
c0 -3 -4 -8 -10 -11 -5 -3 -10 -1 -10 4 0 6 5 11 10 11 6 0 10 -2 10 -4z m463
-16 c3 -11 1 -18 -4 -14 -5 3 -9 12 -9 20 0 20 7 17 13 -6z m3520 -34 c-4 -21
-3 -27 5 -22 8 5 12 -3 12 -24 0 -39 -21 -36 -32 6 -9 35 1 102 13 83 4 -7 5
-26 2 -43z m657 38 c0 -8 -5 -12 -10 -9 -6 4 -8 11 -5 16 9 14 15 11 15 -7z
m-17 -40 c-8 -21 -23 -17 -23 6 0 13 5 18 14 14 8 -3 12 -12 9 -20z m-4996 -6
c-3 -8 -6 -5 -6 6 -1 11 2 17 5 13 3 -3 4 -12 1 -19z m5673 13 c0 -5 8 -12 18
-14 14 -4 14 -5 1 -6 -9 0 -22 6 -29 14 -9 10 -9 15 -1 15 6 0 11 -4 11 -9z
m-636 -26 c-10 -8 -23 -14 -29 -14 -5 -1 1 8 15 19 14 10 27 17 29 14 3 -2 -4
-11 -15 -19z m23 -21 c-3 -3 -12 -4 -19 -1 -8 3 -5 6 6 6 11 1 17 -2 13 -5z
m-5277 -14 c0 -5 -5 -10 -11 -10 -5 0 -7 5 -4 10 3 6 8 10 11 10 2 0 4 -4 4
-10z m4288 -25 c-3 -3 -9 2 -12 12 -6 14 -5 15 5 6 7 -7 10 -15 7 -18z m962
21 c0 -11 -19 -15 -25 -6 -3 5 1 10 9 10 9 0 16 -2 16 -4z m-5296 -21 c3 -8 1
-15 -4 -15 -6 0 -10 7 -10 15 0 8 2 15 4 15 2 0 6 -7 10 -15z m1488 -17 c2
-13 10 -23 18 -23 9 0 14 -9 13 -20 -1 -19 -1 -19 12 -2 11 16 13 16 19 1 6
-15 -26 -54 -45 -54 -9 0 -24 40 -21 53 2 5 -7 11 -18 14 -24 6 -24 7 -8 33
17 26 26 25 30 -2z m4591 -29 c0 -13 5 -27 10 -30 6 -4 7 -19 3 -34 -7 -26 -8
-27 -23 -12 -10 10 -18 39 -21 74 -4 54 -3 57 12 42 10 -9 18 -27 19 -40z
m-1322 -7 c0 -15 2 -57 4 -94 2 -38 -1 -68 -6 -68 -5 0 -26 23 -46 51 l-38 50
-3 -40 c-3 -35 1 -44 30 -70 33 -30 33 -30 8 -31 -40 0 -47 11 -52 83 -4 50
-2 72 8 82 8 7 14 24 14 38 0 21 5 24 40 25 37 2 40 0 41 -26z m-4896 -21 c-6
-5 -25 10 -25 20 0 5 6 4 14 -3 8 -7 12 -15 11 -17z m1589 20 c4 -5 0 -11 -6
-14 -10 -4 -11 -7 0 -18 9 -9 12 -10 12 -1 0 7 5 12 12 12 8 0 7 -6 -4 -16
-13 -13 -20 -14 -38 -4 -12 6 -27 9 -34 7 -7 -3 -13 1 -13 9 0 8 6 13 13 10 7
-3 15 2 18 10 6 16 32 19 40 5z m5335 -5 c10 -12 8 -13 -9 -9 -25 7 -37 23
-17 23 8 0 20 -6 26 -14z m-6822 -15 c0 -11 -5 -18 -9 -15 -4 3 -5 11 -1 19 7
21 12 19 10 -4z m5404 -4 c-10 -9 -11 -8 -5 6 3 10 9 15 12 12 3 -3 0 -11 -7
-18z m-5256 -11 c18 -13 18 -14 -3 -25 -26 -14 -42 -14 -22 0 11 8 12 12 3 16
-14 5 -18 23 -5 23 5 0 17 -6 27 -14z m6530 7 c-6 -5 -16 -20 -24 -35 -10 -19
-22 -28 -38 -28 -13 0 -38 -7 -54 -16 -30 -15 -30 -15 -19 6 6 11 15 18 21 15
5 -4 9 6 9 21 0 25 -2 26 -40 20 -39 -6 -59 8 -22 16 34 8 177 8 167 1z
m-6785 -13 c0 -5 -2 -10 -4 -10 -3 0 -8 5 -11 10 -3 6 -1 10 4 10 6 0 11 -4
11 -10z m174 -23 c-3 -9 -10 -17 -15 -17 -6 0 -6 8 0 19 6 10 9 21 7 23 -1 3
1 2 6 -2 5 -3 6 -14 2 -23z m-118 3 c5 1 10 -4 12 -10 3 -8 -3 -10 -18 -5 -19
6 -21 5 -11 -13 6 -11 7 -22 4 -26 -3 -3 -2 -6 4 -6 6 0 14 -8 17 -17 6 -15 5
-15 -13 1 -19 17 -47 14 -36 -4 3 -5 -1 -20 -10 -33 -8 -13 -12 -27 -8 -30 3
-4 1 -7 -5 -7 -17 0 -16 87 1 93 9 3 8 8 -3 23 -15 18 -14 18 13 1 19 -12 26
-14 25 -5 -2 7 -7 16 -13 20 -6 5 -5 8 3 8 6 0 12 8 12 18 0 13 2 14 9 4 4 -8
12 -13 17 -12z m1384 5 c-7 -8 -17 -15 -23 -15 -6 0 -2 7 9 15 25 19 30 19 14
0z m1770 -15 c16 -30 8 -91 -13 -104 -39 -23 -63 57 -31 102 19 27 30 28 44 2z
m1807 -81 c39 -42 53 -69 37 -69 -3 0 -25 14 -48 31 l-41 31 44 -41 c24 -23
42 -41 40 -42 -36 -7 -49 -5 -77 14 -31 21 -58 78 -40 85 4 2 8 8 8 13 0 6 -4
7 -10 4 -11 -7 -14 58 -3 69 4 4 16 -6 28 -21 11 -15 39 -49 62 -74z m-4887
75 c0 -8 -4 -13 -9 -9 -13 8 -24 -32 -17 -60 5 -18 3 -23 -7 -19 -9 3 -12 14
-10 28 3 13 0 27 -7 31 -8 5 -3 13 17 26 34 23 33 23 33 3z m5330 5 c0 -4 -9
-17 -20 -30 l-20 -24 -7 25 c-7 23 -8 22 -14 -15 l-7 -40 1 46 c1 45 1 46 34
46 18 0 33 -4 33 -8z m1400 -5 c0 -9 -9 -18 -19 -21 -11 -3 -24 -18 -30 -34
-5 -16 -14 -29 -18 -29 -5 0 -7 -17 -4 -37 2 -21 6 -32 8 -25 3 6 9 10 14 6
16 -10 10 -24 -11 -24 -11 0 -20 6 -20 13 0 8 -3 7 -10 -3 -5 -8 -12 -12 -15
-9 -9 9 6 40 16 33 5 -3 9 2 9 11 0 11 -5 15 -15 12 -8 -4 -17 -2 -20 3 -7 11
21 81 32 79 19 -3 27 2 14 10 -22 14 -3 31 35 31 24 0 34 -4 34 -16z m-220
-13 c0 -11 -4 -22 -8 -25 -5 -3 -8 -13 -7 -23 1 -10 5 -52 9 -94 9 -86 10 -88
50 -109 l29 -15 -49 -7 c-26 -4 -53 -3 -59 2 -6 5 -28 10 -50 12 -38 3 -40 5
-36 33 1 17 8 33 13 36 7 4 6 9 -2 14 -7 4 -9 17 -5 34 4 14 8 34 9 44 0 10 8
22 16 27 10 7 11 10 3 10 -7 0 -13 4 -13 9 0 5 9 7 20 4 11 -3 20 -1 20 5 0 5
-10 12 -22 16 -23 5 -23 6 -3 20 18 12 30 16 78 25 4 0 7 -8 7 -18z m-4685 -1
c-3 -5 -10 -10 -16 -10 -5 0 -9 5 -9 10 0 6 7 10 16 10 8 0 12 -4 9 -10z m313
-58 c-3 -37 -1 -101 4 -142 4 -41 5 -123 2 -182 l-7 -108 -108 0 -109 0 0 39
c0 22 -4 42 -9 46 -14 8 -7 138 12 235 9 47 17 86 17 87 0 1 11 0 25 -3 14 -2
25 0 25 6 0 6 -3 9 -7 7 -5 -3 -17 -1 -29 3 -19 8 -21 14 -15 62 1 9 31 13
125 15 l78 2 -4 -67z m4659 14 c-1 -19 -9 -39 -18 -44 -14 -9 -16 -3 -18 44
-1 52 0 54 18 44 15 -7 19 -19 18 -44z m-6660 12 c-3 -8 -6 -5 -6 6 -1 11 2
17 5 13 3 -3 4 -12 1 -19z m6473 7 c0 -9 -7 -18 -15 -21 -8 -4 -15 -12 -15
-20 0 -8 -4 -14 -10 -14 -5 0 -10 4 -10 9 0 5 -2 15 -5 23 -3 7 5 18 17 24 32
16 38 16 38 -1z m-5326 -10 c-4 -8 -10 -12 -15 -9 -11 6 -2 24 11 24 5 0 7 -7
4 -15z m3905 -7 c0 -16 -2 -18 -6 -8 -3 8 -11 18 -17 22 -7 5 -4 8 7 8 11 0
17 -7 16 -22z m-3312 -15 c2 -6 -4 -13 -13 -17 -14 -5 -15 -4 -5 8 8 10 9 16
1 19 -6 3 -5 4 2 3 6 -1 13 -7 15 -13z m-217 -9 c0 -2 -7 -4 -15 -4 -8 0 -15
4 -15 10 0 5 7 7 15 4 8 -4 15 -8 15 -10z m2166 -19 c-3 -8 -27 -25 -53 -39
-55 -28 -54 -34 2 -10 20 8 38 14 40 12 2 -2 5 -16 7 -33 3 -28 -1 -31 -57
-53 -46 -19 -63 -22 -77 -13 -29 18 -65 13 -100 -16 l-33 -27 24 27 c20 22 21
27 8 27 -9 0 -19 -5 -22 -10 -13 -21 -72 -37 -140 -38 l-70 -1 71 24 c116 39
234 91 319 139 75 42 94 45 81 11z m2044 25 c0 -5 9 -10 20 -10 27 0 25 -16
-2 -23 -12 -4 -19 -9 -15 -13 4 -4 18 -2 31 5 13 8 30 11 38 8 9 -4 6 -8 -9
-12 -12 -4 -24 -14 -27 -22 -4 -8 -1 -11 5 -7 6 3 17 -4 26 -15 11 -16 18 -19
28 -11 9 8 14 6 19 -5 4 -10 -1 -15 -15 -15 -33 0 -11 -20 24 -21 25 -1 27 -3
9 -6 -18 -3 -23 -10 -19 -23 3 -11 0 -22 -7 -25 -8 -3 -8 -7 2 -11 18 -8 15
-20 -12 -49 -28 -31 -38 -27 -69 22 -23 36 -23 37 -5 72 17 33 17 36 0 45 -37
20 -63 57 -58 84 2 15 5 30 5 35 1 11 31 8 31 -3z m877 -27 c-3 -3 -17 -6 -31
-7 -14 0 -26 -5 -26 -9 0 -5 -4 -5 -10 -2 -5 3 -10 11 -10 16 0 6 5 7 10 4 6
-3 10 2 10 11 0 17 1 17 13 1 8 -12 16 -14 27 -7 13 9 13 10 0 10 -13 0 -13 1
0 10 11 7 16 5 18 -6 2 -9 1 -18 -1 -21z m-6810 11 c-3 -3 -12 -4 -19 -1 -8 3
-5 6 6 6 11 1 17 -2 13 -5z m2548 -54 c23 0 23 -2 29 -137 3 -76 8 -165 10
-198 3 -58 2 -61 -28 -80 -20 -14 -31 -28 -30 -43 1 -13 -4 -22 -13 -22 -13 0
-14 10 -9 54 4 30 8 153 8 273 1 120 3 203 5 186 4 -27 9 -33 28 -33z m2705
44 c0 -8 -5 -12 -10 -9 -6 4 -8 11 -5 16 9 14 15 11 15 -7z m77 -41 c-3 -10
-5 -2 -5 17 0 19 2 27 5 18 2 -10 2 -26 0 -35z m740 15 c-3 -8 -6 -5 -6 6 -1
11 2 17 5 13 3 -3 4 -12 1 -19z m-3099 5 c-10 -2 -26 -2 -35 0 -10 3 -2 5 17
5 19 0 27 -2 18 -5z m192 -13 c0 -5 -4 -10 -10 -10 -5 0 -10 5 -10 10 0 6 5
10 10 10 6 0 10 -4 10 -10z m-3050 -33 c0 12 71 26 82 15 4 -4 3 -14 -2 -22
-8 -11 -12 -12 -18 -3 -4 7 -12 9 -18 5 -11 -7 -57 -122 -52 -127 2 -2 39 -6
83 -10 44 -4 82 -9 85 -11 2 -3 -1 -17 -7 -33 -5 -16 -9 -42 -8 -60 2 -17 -2
-31 -7 -31 -5 0 -6 -4 -3 -10 3 -5 -3 -10 -14 -10 -11 0 -33 16 -48 35 -15 19
-36 35 -45 35 -23 0 -41 -35 -32 -62 6 -20 4 -20 -62 -13 -62 6 -72 10 -101
43 -27 29 -33 44 -33 79 0 41 1 43 31 43 21 0 30 4 26 13 -3 8 4 14 17 15 19
1 61 40 53 49 -2 2 -17 -3 -32 -11 -16 -8 -33 -12 -38 -9 -6 4 -2 10 9 14 10
4 29 16 40 27 12 12 24 18 28 15 3 -3 11 6 17 21 12 25 13 25 31 10 10 -10 18
-12 18 -7z m183 11 c-7 -13 12 -9 25 4 9 9 12 9 12 0 0 -14 1 -13 -59 -16 -25
-1 -47 -8 -49 -14 -2 -7 -8 -10 -13 -6 -16 9 -10 24 13 33 27 10 78 9 71 -1z
m1443 -25 c-11 -11 -17 4 -9 23 7 18 8 18 11 1 2 -10 1 -21 -2 -24z m-1686 17
c0 -5 -7 -7 -15 -4 -8 4 -15 8 -15 10 0 2 7 4 15 4 8 0 15 -4 15 -10z m1030
-32 c0 -5 -6 -8 -12 -5 -7 2 -12 10 -10 16 1 6 -5 11 -14 11 -8 0 -12 -4 -9
-10 3 -5 -1 -10 -11 -10 -14 0 -14 -3 -4 -15 7 -9 10 -19 6 -23 -4 -4 -16 4
-27 18 -11 14 -18 18 -17 10 2 -8 -2 -14 -9 -13 -7 2 -10 -4 -7 -12 4 -8 2
-15 -4 -15 -5 0 -10 17 -10 38 0 28 2 32 9 17 6 -17 8 -17 8 -2 1 11 9 17 24
17 12 0 29 5 37 10 15 9 50 -13 50 -32z m30 27 c0 -8 -7 -15 -15 -15 -8 0 -15
7 -15 15 0 8 7 15 15 15 8 0 15 -7 15 -15z m40 11 c0 -3 -4 -8 -10 -11 -5 -3
-10 -1 -10 4 0 6 5 11 10 11 6 0 10 -2 10 -4z m3690 -21 c0 -22 -4 -25 -35
-25 -19 0 -38 0 -42 0 -5 0 -9 11 -11 25 -3 24 -1 25 42 25 42 0 46 -2 46 -25z
m987 5 c-5 -19 -2 -20 28 -14 41 7 61 -2 45 -21 -6 -7 -11 -30 -11 -51 1 -22
1 -54 1 -71 0 -34 -16 -43 -37 -22 -6 6 -17 8 -24 3 -9 -5 -8 -9 6 -14 11 -4
15 -9 8 -13 -6 -4 -36 14 -67 41 -45 37 -56 52 -54 72 3 23 7 25 44 22 53 -3
76 19 49 48 -17 19 -13 40 7 40 6 0 8 -9 5 -20z m-4642 0 c3 -5 1 -10 -4 -10
-6 0 -11 5 -11 10 0 6 2 10 4 10 3 0 8 -4 11 -10z m506 -3 c-16 -16 -51 -19
-51 -4 0 7 13 13 31 13 22 1 28 -1 20 -9z m-451 -1 c0 -2 -7 -7 -16 -10 -8 -3
-12 -2 -9 4 6 10 25 14 25 6z m381 -29 l12 -22 -23 20 c-13 11 -20 15 -17 8 4
-6 2 -15 -4 -18 -17 -11 -22 1 -9 24 12 24 24 20 41 -12z m3289 8 c0 -3 -9 -5
-20 -5 -11 0 -20 7 -20 15 0 13 4 14 20 5 11 -6 20 -13 20 -15z m-4305 -105
c-7 -55 -7 -55 -19 -25 -7 17 -17 28 -22 25 -22 -12 -14 45 13 83 l28 41 3
-35 c2 -19 1 -59 -3 -89z m330 93 c-2 -10 -4 -20 -5 -23 -1 -3 -2 -8 -1 -12 0
-5 -3 -8 -9 -8 -5 0 -10 -8 -11 -17 0 -15 -2 -15 -9 2 -12 28 -12 37 0 30 6
-3 10 1 10 10 0 13 -4 14 -21 5 -12 -7 -18 -18 -15 -26 8 -20 -7 -17 -26 6
-10 10 -13 22 -8 25 4 3 10 0 12 -6 2 -6 13 -3 28 10 31 26 59 27 55 4z m450
-13 c-5 -15 -3 -18 9 -14 9 3 16 1 16 -4 0 -10 -38 -27 -45 -20 -7 7 8 58 17
58 5 0 7 -9 3 -20z m39 8 c-3 -4 -9 -8 -15 -8 -5 0 -9 4 -9 8 0 5 7 9 15 9 8
0 12 -4 9 -9z m131 2 c3 -5 2 -10 -4 -10 -5 0 -13 5 -16 10 -3 6 -2 10 4 10 5
0 13 -4 16 -10z m3182 -123 c-2 -23 -3 -1 -3 48 0 50 1 68 3 42 2 -26 2 -67 0
-90z m-3922 103 c-2 -3 -14 -6 -27 -4 -31 3 -30 3 -24 13 3 4 17 6 31 4 13 -3
23 -9 20 -13z m538 -4 c-8 -15 -11 -15 -28 -1 -20 16 -19 16 3 10 14 -4 22 -2
22 6 0 7 3 10 6 6 3 -3 2 -13 -3 -21z m4824 2 c-3 -8 -6 -5 -6 6 -1 11 2 17 5
13 3 -3 4 -12 1 -19z m450 -10 c-3 -8 -6 -5 -6 6 -1 11 2 17 5 13 3 -3 4 -12
1 -19z m-2737 -3 c0 -9 -12 -20 -26 -25 -32 -13 -43 -13 -24 0 13 8 13 10 -2
10 -9 0 -18 -5 -20 -11 -3 -8 -10 -8 -26 2 -21 13 -21 14 16 25 54 17 82 17
82 -1z m1309 -24 c29 -42 43 -71 32 -71 -5 0 -16 6 -23 13 -7 6 -19 13 -27 15
-18 4 -41 -29 -35 -50 3 -9 0 -19 -5 -22 -6 -4 -7 -14 -4 -23 4 -11 3 -14 -5
-9 -16 9 -15 -7 0 -22 6 -6 9 -14 6 -18 -11 -10 -31 38 -32 77 0 21 -4 35 -8
33 -5 -3 -8 2 -8 10 0 9 5 16 11 16 8 0 8 4 0 14 -9 11 -10 20 -2 35 25 45 69
46 100 2z m-2709 13 c0 -8 -5 -12 -10 -9 -6 4 -8 11 -5 16 9 14 15 11 15 -7z
m251 -74 l59 0 0 40 c0 23 5 40 11 40 7 0 10 -15 7 -40 -3 -36 -1 -40 19 -40
27 0 28 -6 7 -101 -23 -102 -38 -113 -31 -21 l6 72 -79 0 -78 0 -11 -50 c-6
-28 -11 -58 -11 -65 0 -8 -4 -15 -9 -15 -4 0 -7 12 -5 28 2 16 1 19 -2 7 -14
-48 -24 -35 -24 31 0 65 2 71 30 94 23 19 30 33 30 61 0 54 15 58 18 5 l3 -46
60 0z m168 18 c1 -16 -3 -28 -9 -28 -5 0 -10 21 -9 48 0 35 3 42 9 27 5 -11 9
-32 9 -47z m2116 22 c-4 -13 1 -31 14 -49 29 -40 27 -59 -2 -25 -24 27 -24 27
-30 6 -3 -16 1 -25 14 -32 10 -6 28 -30 40 -53 l21 -42 -32 38 c-36 43 -50 47
-50 14 0 -14 12 -32 30 -45 17 -13 30 -30 30 -39 0 -13 -2 -14 -17 -2 -11 10
-14 10 -9 2 5 -9 -1 -13 -19 -13 -14 0 -24 4 -21 8 6 11 -22 52 -35 52 -6 0
-7 -4 -4 -10 3 -5 1 -10 -4 -10 -16 0 -13 82 4 121 8 19 14 28 15 21 0 -20 23
6 39 46 15 35 26 44 16 12z m-1403 -12 c-3 -12 -7 -17 -10 -10 -2 6 -13 13
-25 13 -17 1 -15 3 8 9 17 4 31 8 32 9 0 0 -1 -9 -5 -21z m2861 15 c-7 -2 -21
-2 -30 0 -10 3 -4 5 12 5 17 0 24 -2 18 -5z m-3058 -41 c-3 -3 -11 0 -18 7 -9
10 -8 11 6 5 10 -3 15 -9 12 -12z m2325 -23 c0 -11 -7 -19 -15 -19 -10 0 -15
10 -15 31 0 27 2 30 15 19 8 -7 15 -21 15 -31z m-546 5 c3 -8 2 -12 -3 -9 -5
3 -12 1 -16 -5 -10 -16 -25 -12 -25 8 0 22 36 27 44 6z m-4730 -35 c-3 -5 -10
-7 -15 -3 -5 3 -7 10 -3 15 3 5 10 7 15 3 5 -3 7 -10 3 -15z m125 -36 c0 -32
-4 -67 -9 -78 -7 -14 -8 -9 -4 18 4 24 2 37 -5 37 -12 0 -16 62 -4 73 16 17
23 3 22 -50z m4637 28 c-4 -6 -13 -11 -19 -11 -8 0 -7 3 2 9 8 5 10 14 6 22
-6 11 -5 11 5 2 7 -6 9 -16 6 -22z m-3353 4 c-3 -9 -8 -14 -10 -11 -3 3 -2 9
2 15 9 16 15 13 8 -4z m3314 -12 c0 -16 -2 -23 -4 -16 -2 7 -11 9 -19 6 -8 -3
-14 0 -14 6 0 6 7 11 15 11 8 0 15 5 15 10 0 6 2 10 4 10 2 0 3 -12 3 -27z
m-3548 13 c-10 -9 -79 -14 -74 -5 4 5 22 9 42 9 20 0 34 -2 32 -4z m1428 -2
c-3 -3 -12 -4 -19 -1 -8 3 -5 6 6 6 11 1 17 -2 13 -5z m-2593 -29 c-4 -8 -10
-15 -16 -15 -5 0 -6 -4 -3 -10 3 -5 -2 -10 -13 -10 -15 0 -18 5 -14 25 3 18
11 25 28 25 17 0 22 -4 18 -15z m2603 -17 c2 -31 -12 -52 -29 -42 -13 8 -9 54
5 54 8 0 7 4 -3 10 -12 8 -12 10 5 10 15 0 21 -7 22 -32z m2963 10 c0 -5 -6
-8 -12 -9 -7 0 -4 -4 7 -9 18 -8 17 -9 -6 -9 -66 -2 -118 23 -66 31 36 6 77 4
77 -4z m-3272 -14 c-9 -9 -24 -14 -32 -11 -27 11 -17 27 16 27 30 0 31 -1 16
-16z m205 -4 c3 -11 2 -20 -3 -20 -4 0 -4 -17 1 -37 10 -43 2 -120 -13 -129
-7 -4 -8 11 -3 45 6 48 5 51 -18 60 -22 9 -25 15 -22 53 3 53 0 48 29 48 15 0
26 -7 29 -20z m-1866 3 c-9 -2 -14 -9 -11 -15 4 -7 2 -8 -4 -4 -20 12 -13 26
11 25 17 -1 18 -2 4 -6z m4077 -9 c3 -8 2 -12 -4 -9 -6 3 -10 10 -10 16 0 14
7 11 14 -7z m-4214 -3 c0 -12 -39 -25 -48 -16 -7 7 17 25 36 25 6 0 12 -4 12
-9z m95 -1 c-3 -5 -11 -10 -16 -10 -6 0 -7 5 -4 10 3 6 11 10 16 10 6 0 7 -4
4 -10z m385 1 c0 -5 -9 -11 -20 -14 -11 -3 -20 -1 -20 3 0 5 8 11 18 13 9 3
18 5 20 6 1 0 2 -3 2 -8z m1325 -26 c6 -2 -11 -4 -37 -4 -27 -1 -48 3 -48 7 0
7 62 5 85 -3z m2376 -8 c-10 -9 -11 -8 -5 6 3 10 9 15 12 12 3 -3 0 -11 -7
-18z m862 16 c-7 -2 -21 -2 -30 0 -10 3 -4 5 12 5 17 0 24 -2 18 -5z m-5856
-35 c-3 -8 -6 -5 -6 6 -1 11 2 17 5 13 3 -3 4 -12 1 -19z m2923 1 c0 -5 -9 -9
-20 -9 -22 0 -27 16 -7 23 15 5 27 -1 27 -14z m-300 1 c0 -13 -60 -13 -80 0
-11 7 -2 10 33 10 26 0 47 -4 47 -10z m2321 -17 c13 -16 12 -17 -3 -4 -17 13
-22 21 -14 21 2 0 10 -8 17 -17z m-2361 -9 c0 -2 -11 -4 -25 -4 -14 0 -25 4
-25 9 0 4 11 6 25 3 14 -2 25 -6 25 -8z m-2590 -4 c0 -5 -7 -10 -15 -10 -8 0
-15 5 -15 10 0 6 7 10 15 10 8 0 15 -4 15 -10z m144 -5 c-4 -8 -10 -15 -15
-15 -4 0 -6 7 -3 15 4 8 10 15 15 15 4 0 6 -7 3 -15z m5785 -30 l0 -20 -9 20
c-5 11 -9 27 -9 35 -1 13 0 13 9 0 5 -8 9 -24 9 -35z m-5627 12 c-12 -14 -33
-127 -31 -167 1 -15 4 -9 8 15 5 37 9 40 39 43 54 5 57 -4 54 -130 -2 -90 -6
-115 -17 -115 -8 0 -14 3 -13 6 2 19 -3 24 -11 12 -12 -19 -40 36 -51 98 l-8
46 -1 -50 c-1 -32 6 -65 18 -88 19 -37 14 -48 -11 -24 -7 8 -18 12 -25 10 -6
-2 -14 5 -18 16 -3 12 -13 21 -20 21 -9 0 -12 6 -9 15 11 27 -6 16 -18 -12
l-12 -28 -4 25 c-7 42 -22 47 -22 7 0 -38 -15 -48 -38 -25 -18 18 -15 28 8 28
11 0 20 5 20 10 0 6 -9 10 -20 10 -18 0 -20 5 -14 63 5 55 23 114 24 80 0 -27
20 -11 20 16 0 28 2 29 29 21 16 -4 44 -4 62 0 22 5 27 9 14 10 -11 1 -26 2
-33 1 -10 -2 -12 11 -10 46 2 28 7 46 13 43 6 -3 10 -13 9 -22 0 -9 3 -15 8
-12 4 3 8 12 8 20 0 8 9 14 19 14 11 0 23 5 26 11 4 6 9 8 12 5 3 -3 1 -11 -5
-19z m459 -7 c27 0 49 5 49 10 0 6 5 10 11 10 7 0 9 -9 6 -22 -3 -13 -11 -90
-18 -173 -10 -121 -16 -152 -29 -162 -20 -14 -33 -53 -19 -53 10 0 1 -50 -12
-64 -4 -5 -23 -1 -44 8 -21 10 -47 15 -60 12 -18 -5 -24 -1 -29 17 -10 37 -7
73 9 103 8 16 15 38 15 49 1 19 1 19 11 2 6 -10 8 -29 5 -41 -5 -21 -2 -24 46
-29 29 -4 53 -5 54 -4 1 1 5 28 9 60 l7 57 -34 0 c-33 0 -34 1 -30 34 3 22 10
37 21 39 9 3 2 5 -15 6 -35 1 -44 -12 -44 -59 0 -16 -4 -31 -9 -34 -12 -8 -20
65 -10 86 6 10 5 19 -1 23 -5 3 -10 16 -9 28 1 20 2 20 8 -3 9 -31 20 -15 25
36 5 51 27 106 33 82 4 -14 15 -18 54 -18z m1575 -68 c3 -18 9 -30 15 -27 13
8 11 -12 -3 -38 -6 -12 -12 -46 -13 -75 -2 -48 -9 -72 -19 -61 -1 2 0 72 3
154 3 83 7 134 8 115 2 -19 6 -50 9 -68z m2614 72 c0 -2 -9 0 -20 6 -11 6 -20
13 -20 16 0 2 9 0 20 -6 11 -6 20 -13 20 -16z m-3616 4 c-3 -4 7 -8 23 -8 22
0 25 2 13 10 -11 7 -3 10 28 10 26 0 41 -4 37 -10 -3 -5 1 -10 10 -10 9 0 14
4 11 8 -3 5 12 8 33 8 22 -1 37 -4 34 -8 -2 -5 5 -8 17 -8 12 0 18 4 15 10 -7
11 24 8 59 -6 13 -5 17 -4 12 4 -4 7 5 10 29 9 44 -2 44 -29 0 -38 l-30 -7 28
-1 c53 -2 26 -21 -30 -22 -32 0 -85 -3 -118 -7 -33 -4 -87 -6 -120 -6 -226 4
-325 8 -325 16 0 4 9 8 20 8 11 0 20 4 20 9 0 5 -9 7 -20 4 -24 -6 -26 5 -3
22 13 10 22 9 42 -1 14 -8 37 -13 51 -13 23 2 24 2 3 6 -13 2 -23 8 -23 13 0
4 36 6 80 3 49 -4 80 -2 80 4 0 5 7 10 15 10 8 0 12 -4 9 -9z m-257 -4 c-3 -3
-12 -4 -19 -1 -8 3 -5 6 6 6 11 1 17 -2 13 -5z m60 0 c-3 -3 -12 -4 -19 -1 -8
3 -5 6 6 6 11 1 17 -2 13 -5z m2762 -132 c1 -60 -3 -91 -9 -87 -6 4 -10 52 -9
113 0 69 3 100 9 87 5 -11 9 -62 9 -113z m-3787 26 c-6 -6 -35 -11 -66 -12
-33 0 -51 3 -46 8 5 5 30 9 55 8 l45 0 8 41 7 42 3 -39 c2 -21 -1 -43 -6 -48z
m-151 38 c-33 -25 -105 -151 -95 -167 2 -4 -1 -38 -7 -74 l-12 -65 -36 -1 -36
-1 40 -9 c22 -4 146 -22 275 -39 129 -16 339 -44 465 -60 127 -17 392 -51 590
-75 198 -24 538 -66 755 -94 415 -52 464 -57 625 -67 55 -3 109 -9 120 -14 62
-25 507 -71 770 -79 127 -4 204 -8 173 -9 -31 -1 -60 -6 -63 -12 -4 -6 -71
-10 -163 -11 -124 -1 -147 -3 -107 -10 185 -33 229 -45 219 -60 -14 -23 345
-2 460 27 32 8 122 19 200 24 154 11 312 28 336 38 35 14 -121 19 -325 10
-211 -8 -325 -4 -325 12 0 10 94 17 430 32 291 13 272 14 845 -38 83 -7 213
-18 290 -24 267 -20 490 -43 495 -51 3 -4 53 -8 110 -8 136 -1 276 -12 259
-21 -8 -4 -79 -24 -159 -45 -80 -20 -201 -54 -270 -75 -69 -22 -177 -53 -240
-69 -63 -17 -180 -50 -260 -74 l-145 -42 -2180 -3 c-1282 -1 -2205 2 -2240 7
-33 5 -123 25 -200 43 -161 40 -291 70 -320 74 -11 1 -58 14 -105 27 -47 14
-114 30 -150 36 -36 6 -101 20 -145 29 l-80 18 -3 355 -2 355 32 2 c49 4 68
12 68 29 0 13 -2 14 -17 2 -14 -12 -16 -12 -8 0 6 11 2 13 -21 8 -17 -3 -36
-2 -44 4 -12 7 -9 9 10 10 l25 1 -25 8 c-26 8 -23 10 20 15 14 2 39 9 55 15
28 11 28 13 10 20 -11 5 -39 9 -63 9 l-42 1 1 48 2 47 53 -3 c35 -3 54 0 54 7
0 7 25 11 67 11 l67 0 -33 -24z m2759 14 c0 -5 -5 -10 -11 -10 -5 0 -7 5 -4
10 3 6 8 10 11 10 2 0 4 -4 4 -10z m-164 -27 c-10 -10 -19 5 -10 18 6 11 8 11
12 0 2 -7 1 -15 -2 -18z m-906 -10 c4 1 10 -2 12 -7 1 -4 -33 -10 -77 -12 -53
-2 -75 0 -65 6 9 6 10 10 3 10 -6 0 -15 -4 -18 -10 -3 -5 -13 -10 -21 -10 -13
0 -14 2 -1 14 16 17 89 24 131 14 15 -4 32 -6 36 -5z m-547 0 c-7 -2 -19 -2
-25 0 -7 3 -2 5 12 5 14 0 19 -2 13 -5z m4577 4 c0 -2 -10 -12 -22 -23 l-23
-19 19 23 c18 21 26 27 26 19z m-4590 -27 c0 -5 -2 -10 -4 -10 -3 0 -8 5 -11
10 -3 6 -1 10 4 10 6 0 11 -4 11 -10z m80 -6 c0 -2 -16 -4 -35 -4 -19 0 -35 4
-35 8 0 4 16 6 35 4 19 -2 35 -6 35 -8z m1498 4 c-2 -6 -10 -14 -16 -16 -7 -2
-10 2 -6 12 7 18 28 22 22 4z m121 -60 c-12 -66 -28 -108 -29 -77 0 9 4 29 9
45 5 16 12 46 16 68 3 21 9 36 11 33 3 -3 0 -34 -7 -69z m784 30 c-6 -11 -33
-10 -33 2 0 5 6 7 14 4 11 -4 13 1 10 18 -4 21 -3 21 5 3 4 -11 7 -23 4 -27z
m-1073 -32 c0 -60 -1 -64 -21 -59 -17 5 -20 12 -18 44 2 21 0 41 -4 45 -15 16
-6 34 18 34 24 0 25 -2 25 -64z m130 44 c5 -10 9 -32 8 -47 -5 -74 -1 -80 48
-86 25 -2 50 -9 55 -14 5 -5 12 -82 15 -171 5 -152 4 -162 -13 -162 -11 0 -14
3 -7 8 14 9 14 72 0 72 -18 0 -38 -38 -24 -46 7 -4 8 -3 4 4 -4 7 -3 12 3 12
18 0 21 -18 5 -24 -9 -4 -18 -5 -19 -4 -1 2 -10 19 -22 38 -17 30 -23 48 -38
103 -2 4 -3 43 -4 88 0 48 -5 78 -10 74 -15 -9 -5 -184 13 -238 18 -50 15 -70
-9 -60 -8 3 -15 0 -15 -6 0 -6 4 -11 8 -11 5 0 9 -7 9 -15 0 -13 -2 -13 -17 0
-9 8 -22 15 -28 15 -20 0 -13 16 11 28 22 10 22 11 -5 11 -26 1 -34 -11 -29
-41 0 -5 -3 -8 -9 -8 -5 0 -10 5 -10 10 0 6 -14 10 -31 10 -19 0 -28 4 -23 11
4 7 -1 7 -16 -1 -16 -9 -20 -9 -15 -1 4 7 1 18 -5 26 -7 8 -10 24 -7 35 3 11
1 23 -5 26 -5 3 -12 -3 -15 -14 -2 -11 -15 -22 -28 -24 -20 -4 -24 0 -31 36
l-8 41 -6 -55 -7 -55 -3 55 c-2 30 -2 70 -1 88 2 23 -2 32 -13 32 -18 0 -21
40 -7 86 5 16 12 41 15 57 4 15 11 27 16 27 5 0 7 -6 5 -12 -4 -9 7 -14 31
-15 19 -1 42 -7 50 -14 11 -9 14 -9 14 1 0 10 18 11 74 6 48 -4 77 -3 81 4 4
6 -12 10 -44 10 -47 0 -50 2 -53 28 -2 15 -1 44 1 65 l3 37 49 0 c38 0 51 -4
59 -20z m2983 6 c4 -10 1 -13 -9 -9 -7 3 -14 9 -14 14 0 14 17 10 23 -5z
m-5588 -15 c26 0 28 2 10 10 -17 8 -17 9 5 4 14 -2 31 -5 38 -5 18 0 15 -35
-5 -52 -10 -9 -27 -18 -38 -21 -17 -4 -16 -5 5 -7 14 -1 28 -2 33 -1 4 0 7 -3
7 -9 0 -5 -5 -10 -11 -10 -8 0 -8 -5 1 -15 10 -12 10 -18 0 -30 -7 -8 -9 -15
-4 -15 5 0 14 -11 21 -25 9 -20 8 -25 -3 -25 -8 0 -14 -4 -14 -9 0 -7 -90 -8
-149 -2 -11 1 -12 16 -7 78 7 77 16 103 44 136 11 12 19 14 26 7 5 -5 24 -10
41 -9z m3782 -3 c-3 -8 -6 -5 -6 6 -1 11 2 17 5 13 3 -3 4 -12 1 -19z m-2269
-5 c-10 -2 -26 -2 -35 0 -10 3 -2 5 17 5 19 0 27 -2 18 -5z m-95 -15 l208 1
-3 -22 c-3 -21 -6 -22 -133 -20 -80 1 -119 -2 -100 -7 17 -4 55 -8 85 -9 30
-1 68 -8 84 -16 31 -16 50 -20 26 -5 -17 11 -7 25 13 17 11 -4 12 -15 6 -49
-4 -23 -12 -72 -19 -108 -6 -36 -15 -69 -19 -73 -9 -9 -476 -6 -484 3 -3 3 -1
30 4 60 7 44 6 57 -6 66 -22 17 -7 24 49 24 77 0 186 12 186 20 0 4 -28 6 -62
3 -122 -8 -188 -7 -188 5 0 4 24 8 52 9 129 3 150 6 131 17 -10 5 -47 10 -82
9 -40 0 -59 2 -50 8 11 7 10 9 -3 9 -10 0 -18 -7 -18 -15 0 -8 -3 -15 -6 -15
-14 0 -33 36 -34 61 0 24 3 25 51 26 28 1 53 4 57 7 3 4 15 3 26 0 12 -4 115
-7 229 -6z m4212 -8 c3 -6 -1 -7 -9 -4 -18 7 -21 14 -7 14 6 0 13 -4 16 -10z
m-38 -22 c-3 -8 -6 -5 -6 6 -1 11 2 17 5 13 3 -3 4 -12 1 -19z m-5380 -161
c-4 -13 -47 -20 -47 -7 0 6 7 10 15 10 8 0 15 5 15 11 0 5 5 7 11 4 5 -4 8
-12 6 -18z m3243 -42 c0 -36 -4 -65 -10 -65 -5 0 -6 7 -3 17 4 11 3 14 -5 9
-7 -4 -12 -4 -13 1 0 4 -2 16 -4 25 -2 10 1 20 6 24 5 3 7 10 3 15 -3 5 -10 7
-15 4 -5 -4 -9 -1 -9 5 0 8 25 24 48 29 1 1 2 -28 2 -64z m-3340 37 c0 -5 -13
-7 -30 -4 -16 2 -30 6 -30 8 0 2 14 4 30 4 17 0 30 -4 30 -8z m185 -21 c-3 -6
-14 -10 -23 -10 -15 1 -15 2 1 6 9 2 17 9 17 15 0 6 3 9 6 5 3 -3 3 -10 -1
-16z m2974 -88 c-10 -43 -19 -91 -20 -108 -1 -21 -3 -24 -6 -10 -3 11 -9 24
-14 29 -5 6 -9 15 -9 20 0 6 5 4 10 -4 7 -11 10 -4 10 27 0 43 26 123 40 123
4 0 -1 -35 -11 -77z m-1439 23 c0 -8 -4 -17 -9 -20 -10 -7 -23 19 -14 28 11
11 23 6 23 -8z m413 -3 c-7 -2 -21 -2 -30 0 -10 3 -4 5 12 5 17 0 24 -2 18 -5z
m1108 -30 c-10 -4 -10 -7 -1 -13 8 -5 7 -9 -4 -13 -10 -4 -16 -1 -16 7 0 16
10 26 24 25 6 0 5 -3 -3 -6z m-1845 -13 c34 0 54 -4 54 -11 0 -13 -125 -5
-175 11 -26 9 -23 9 19 5 27 -3 73 -5 102 -5z m420 -58 c-4 -3 -12 0 -19 7 -9
9 -9 14 3 21 11 7 16 5 18 -6 2 -9 1 -18 -2 -22z m1424 2 c0 -14 -3 -14 -15
-4 -8 7 -15 14 -15 16 0 2 7 4 15 4 8 0 15 -7 15 -16z m-1524 -51 c-3 -3 -12
-3 -21 1 -14 5 -14 8 2 30 l18 24 3 -25 c2 -14 1 -27 -2 -30z m-221 37 c3 -5
-1 -10 -10 -10 -9 0 -13 5 -10 10 3 6 8 10 10 10 2 0 7 -4 10 -10z m608 -7
c-7 -2 -19 -2 -25 0 -7 3 -2 5 12 5 14 0 19 -2 13 -5z m-247 -25 c4 -7 3 -8
-4 -4 -7 4 -12 2 -12 -3 0 -6 -12 -11 -27 -11 -21 0 -24 3 -13 9 8 6 18 7 22
5 4 -3 8 0 8 5 0 15 17 14 26 -1z m454 2 c0 -5 -5 -10 -11 -10 -5 0 -7 5 -4
10 3 6 8 10 11 10 2 0 4 -4 4 -10z m940 -6 c0 -14 -46 -31 -57 -21 -3 4 -3 13
0 20 7 19 57 19 57 1z m197 -120 c-3 -3 -12 -4 -19 -1 -8 3 -5 6 6 6 11 1 17
-2 13 -5z m233 -34 c8 -5 11 -10 5 -10 -5 0 -17 5 -25 10 -8 5 -10 10 -5 10 6
0 17 -5 25 -10z m489 -74 c-9 -9 -301 -27 -317 -20 -11 6 11 11 63 14 100 8
260 11 254 6z m-4399 -210 c0 -2 -7 -6 -15 -10 -8 -3 -15 -1 -15 4 0 6 7 10
15 10 8 0 15 -2 15 -4z m-20 -38 c0 -13 -23 -5 -28 10 -2 7 2 10 12 6 9 -3 16
-11 16 -16z m-106 -3 c4 -10 -1 -15 -15 -15 -17 0 -18 2 -7 15 16 18 15 18 22
0z m6691 -55 c3 -6 -1 -7 -9 -4 -18 7 -21 14 -7 14 6 0 13 -4 16 -10z m50 0
c-3 -5 -11 -10 -16 -10 -6 0 -7 5 -4 10 3 6 11 10 16 10 6 0 7 -4 4 -10z m120
-19 c-6 -5 -25 10 -25 20 0 5 6 4 14 -3 8 -7 12 -15 11 -17z m-6140 -31 c-3
-5 -11 -10 -16 -10 -6 0 -7 5 -4 10 3 6 11 10 16 10 6 0 7 -4 4 -10z m-65 -28
c0 -8 -1 -13 -3 -11 -1 2 -9 12 -16 22 -12 15 -12 17 3 11 9 -3 16 -13 16 -22z
m137 22 c-3 -3 -12 -4 -19 -1 -8 3 -5 6 6 6 11 1 17 -2 13 -5z m6086 -1 c-7
-2 -21 -2 -30 0 -10 3 -4 5 12 5 17 0 24 -2 18 -5z m-6430 -15 c3 -10 7 -10
20 1 15 12 17 11 17 -3 0 -13 -13 -16 -81 -16 -44 0 -78 4 -75 9 3 4 16 6 30
4 13 -3 32 0 43 6 24 14 40 14 46 -1z m167 -7 c0 -4 -28 -9 -62 -10 -35 -1
-60 0 -57 4 4 3 23 6 43 7 20 1 39 5 42 9 5 9 34 0 34 -10z m78 1 c2 -7 -3
-12 -12 -12 -9 0 -16 7 -16 16 0 17 22 14 28 -4z m172 -2 c0 -5 -4 -10 -10
-10 -5 0 -10 5 -10 10 0 6 5 10 10 10 6 0 10 -4 10 -10z m25 0 c3 -5 1 -10 -4
-10 -6 0 -11 5 -11 10 0 6 2 10 4 10 3 0 8 -4 11 -10z m-602 -7 c-7 -2 -19 -2
-25 0 -7 3 -2 5 12 5 14 0 19 -2 13 -5z"/>
<path d="M6458 4673 c7 -3 16 -2 19 1 4 3 -2 6 -13 5 -11 0 -14 -3 -6 -6z"/>
<path d="M6595 4650 c3 -5 8 -10 11 -10 2 0 4 5 4 10 0 6 -5 10 -11 10 -5 0
-7 -4 -4 -10z"/>
<path d="M1785 4640 c3 -5 8 -10 11 -10 2 0 4 5 4 10 0 6 -5 10 -11 10 -5 0
-7 -4 -4 -10z"/>
<path d="M1920 4640 c0 -6 7 -10 15 -10 8 0 15 2 15 4 0 2 -7 6 -15 10 -8 3
-15 1 -15 -4z"/>
<path d="M6695 4640 c3 -5 10 -10 16 -10 5 0 9 5 9 10 0 6 -7 10 -16 10 -8 0
-12 -4 -9 -10z"/>
<path d="M6325 4610 c3 -5 8 -10 11 -10 2 0 4 5 4 10 0 6 -5 10 -11 10 -5 0
-7 -4 -4 -10z"/>
<path d="M1896 4575 c-10 -28 7 -51 37 -46 4 0 6 -4 5 -10 -2 -6 3 -14 10 -16
6 -3 12 2 12 10 0 20 -29 49 -41 42 -5 -4 -6 0 -3 8 3 8 1 18 -4 21 -6 3 -12
-1 -16 -9z"/>
<path d="M2395 4389 c-4 -6 -5 -12 -2 -15 2 -3 7 2 10 11 7 17 1 20 -8 4z"/>
<path d="M2350 4310 c0 -5 5 -10 10 -10 6 0 10 5 10 10 0 6 -4 10 -10 10 -5 0
-10 -4 -10 -10z"/>
<path d="M2480 4261 c0 -6 4 -13 10 -16 6 -3 7 1 4 9 -7 18 -14 21 -14 7z"/>
<path d="M3410 4239 c0 -5 5 -7 10 -4 6 3 10 8 10 11 0 2 -4 4 -10 4 -5 0 -10
-5 -10 -11z"/>
<path d="M3385 4234 c6 -2 9 -107 7 -293 -2 -226 0 -290 10 -299 7 -6 31 -12
53 -14 l40 -3 5 129 5 129 54 -99 c92 -169 135 -235 151 -232 13 3 15 41 18
258 1 140 0 265 -3 276 -5 23 -70 55 -92 47 -10 -4 -13 -37 -13 -122 l0 -116
-49 85 c-26 47 -67 118 -90 158 -23 40 -39 77 -36 81 3 5 -3 7 -14 4 -10 -3
-22 0 -25 6 -4 6 -13 11 -19 10 -7 0 -7 -2 -2 -5z"/>
<path d="M3111 4164 c0 -11 3 -14 6 -6 3 7 2 16 -1 19 -3 4 -6 -2 -5 -13z"/>
<path d="M3491 4154 c0 -11 3 -14 6 -6 3 7 2 16 -1 19 -3 4 -6 -2 -5 -13z"/>
<path d="M3844 4058 c-4 -7 -3 -8 4 -4 7 4 12 2 12 -3 0 -6 4 -11 10 -11 5 0
7 7 4 15 -7 18 -20 19 -30 3z"/>
<path d="M4020 4050 c0 -5 5 -10 11 -10 5 0 8 -4 4 -9 -3 -6 -15 -7 -28 -5
-85 20 -98 21 -129 5 -119 -59 -129 -317 -18 -470 33 -45 94 -81 137 -81 135
0 187 244 93 433 -35 70 -37 81 -10 48 11 -13 20 -18 20 -13 0 6 -4 14 -10 17
-5 3 -10 11 -10 16 0 6 5 7 12 3 8 -5 9 -2 5 10 -4 10 -7 19 -7 22 0 2 -7 0
-17 -3 -11 -4 -14 -3 -9 6 4 6 2 18 -4 26 -14 17 -40 20 -40 5z m-39 -177 c35
-21 59 -78 59 -139 0 -75 -35 -115 -82 -93 -69 32 -95 171 -43 229 22 24 29
25 66 3z"/>
<path d="M4110 4006 c0 -31 9 -56 21 -56 5 0 4 12 -2 26 -5 15 -7 29 -4 32 2
3 9 -6 14 -19 l10 -24 0 26 c1 16 -6 29 -15 33 -23 9 -24 8 -24 -18z"/>
<path d="M4274 3942 c1 -19 -5 -28 -19 -30 -14 -2 -16 0 -8 6 21 14 -9 47 -33
37 -10 -4 -25 -7 -31 -6 -7 1 -13 -3 -13 -9 0 -5 7 -10 16 -10 8 0 22 -7 30
-15 14 -13 13 -18 -4 -42 -11 -16 -25 -45 -32 -66 -15 -47 -14 -164 1 -221 45
-167 171 -254 249 -171 l23 25 -23 51 c-28 58 -36 65 -55 49 -23 -19 -63 -3
-85 32 -39 64 -34 175 8 197 22 11 58 -3 74 -29 17 -26 33 -25 52 2 9 12 16
17 16 11 0 -7 -5 -15 -12 -19 -8 -5 -6 -10 8 -14 13 -5 21 -2 26 9 9 22 10 43
1 38 -5 -3 -8 5 -8 18 0 16 4 21 15 17 13 -5 13 -2 -1 14 -9 10 -19 27 -22 37
-4 9 -11 17 -17 17 -12 0 -13 -12 -2 -26 4 -5 -7 4 -24 21 -39 38 -68 55 -94
55 -13 0 -20 6 -19 18 0 10 3 12 6 5 5 -15 23 -18 23 -5 0 5 -10 14 -23 19
-21 10 -23 8 -23 -15z m-34 4 c0 -3 -4 -8 -10 -11 -5 -3 -10 -1 -10 4 0 6 5
11 10 11 6 0 10 -2 10 -4z"/>
<path d="M1525 3940 c-3 -5 -1 -10 4 -10 6 0 11 5 11 10 0 6 -2 10 -4 10 -3 0
-8 -4 -11 -10z"/>
<path d="M4424 3903 c2 -10 7 -17 12 -15 13 3 11 25 -3 29 -6 2 -10 -4 -9 -14z"/>
<path d="M4450 3875 c0 -8 5 -15 10 -15 6 0 10 7 10 15 0 8 -4 15 -10 15 -5 0
-10 -7 -10 -15z"/>
<path d="M4520 3876 c0 -9 8 -16 19 -16 23 0 36 -16 21 -25 -5 -3 -10 0 -10 7
-1 7 -7 0 -15 -17 l-13 -30 -1 29 c-1 37 -9 30 -15 -14 -3 -19 -15 -62 -27
-95 -20 -55 -21 -67 -11 -149 19 -152 89 -256 174 -256 42 0 66 18 95 72 14
26 18 58 19 146 1 62 5 116 9 120 3 4 4 -7 1 -23 -3 -17 -3 -24 0 -17 8 17 24
15 24 -3 0 -8 -5 -15 -11 -15 -8 0 -7 -6 2 -16 12 -15 14 -14 20 7 3 13 5 35
3 49 -2 14 -6 48 -8 77 -3 43 -1 51 13 50 12 -1 17 -12 18 -46 2 -71 9 -111
19 -114 5 -1 10 17 10 40 1 24 9 49 18 58 9 9 16 27 16 41 0 23 -11 29 -67 37
-11 2 -28 9 -37 16 -8 7 -34 19 -58 26 -42 14 -156 55 -190 70 -13 5 -18 2
-18 -9z m210 -96 c-8 -5 -6 -9 7 -14 17 -7 17 -8 1 -17 -14 -8 -15 -15 -8 -35
14 -35 12 -42 -5 -20 -15 20 -21 87 -9 99 4 4 11 4 16 0 6 -3 5 -8 -2 -13z
m-130 -140 c5 0 7 7 4 15 -4 9 0 15 9 15 17 0 40 -24 30 -33 -3 -4 -1 -7 6 -7
8 0 11 -6 7 -16 -3 -8 -2 -13 3 -10 25 16 29 -98 5 -132 -11 -16 -24 -22 -42
-20 -53 6 -90 127 -60 193 10 22 13 23 20 10 5 -8 13 -15 18 -15z"/>
<path d="M1748 3803 c7 -3 16 -2 19 1 4 3 -2 6 -13 5 -11 0 -14 -3 -6 -6z"/>
<path d="M2148 3793 c7 -3 16 -2 19 1 4 3 -2 6 -13 5 -11 0 -14 -3 -6 -6z"/>
<path d="M1575 3761 c-11 -5 -61 -18 -112 -31 -65 -16 -90 -26 -86 -36 2 -7
12 -10 20 -7 11 4 14 2 9 -5 -4 -7 -3 -12 3 -12 5 0 11 8 13 17 2 12 34 27
103 49 55 18 93 32 85 32 -8 1 -24 -3 -35 -7z"/>
<path d="M4906 3735 c4 -8 10 -15 14 -15 4 0 11 -11 14 -25 6 -24 26 -36 26
-15 0 6 4 10 9 10 6 0 9 -8 9 -17 -1 -27 22 -425 26 -448 2 -11 4 72 6 185 1
113 4 226 6 253 4 44 2 48 -22 57 -15 6 -29 8 -32 6 -2 -3 -11 1 -19 9 -19 20
-44 19 -37 0z"/>
<path d="M2148 3713 c7 -3 16 -2 19 1 4 3 -2 6 -13 5 -11 0 -14 -3 -6 -6z"/>
<path d="M2108 3703 c7 -3 16 -2 19 1 4 3 -2 6 -13 5 -11 0 -14 -3 -6 -6z"/>
<path d="M5030 3690 c0 -6 11 -15 25 -20 31 -12 33 -22 2 -16 -15 2 -24 -1
-24 -9 0 -7 8 -10 19 -7 13 3 18 -1 18 -17 0 -11 4 -21 9 -21 10 0 27 39 23
53 -1 4 3 7 8 7 6 0 10 -5 10 -12 0 -6 2 -9 5 -6 11 11 -8 38 -25 38 -11 0
-22 5 -25 10 -8 13 -45 13 -45 0z"/>
<path d="M1270 3679 c0 -5 5 -7 10 -4 6 3 10 8 10 11 0 2 -4 4 -10 4 -5 0 -10
-5 -10 -11z"/>
<path d="M1335 3670 c-3 -5 3 -10 14 -10 12 0 21 5 21 10 0 6 -6 10 -14 10 -8
0 -18 -4 -21 -10z"/>
<path d="M1508 3663 c6 -2 18 -2 25 0 6 3 1 5 -13 5 -14 0 -19 -2 -12 -5z"/>
<path d="M1420 3656 c0 -2 7 -7 16 -10 8 -3 12 -2 9 4 -6 10 -25 14 -25 6z"/>
<path d="M5140 3649 c0 -5 7 -9 15 -9 9 0 18 -12 22 -30 7 -39 21 -38 25 2 3
30 4 31 20 15 9 -9 24 -17 32 -17 22 0 20 -30 -1 -31 -13 0 -12 -3 5 -10 13
-5 28 -7 32 -4 5 3 11 -1 13 -7 4 -10 8 -9 16 2 9 12 11 10 12 -10 0 -14 3
-19 6 -12 8 21 22 13 32 -20 8 -30 9 -30 10 -8 2 33 26 66 37 49 4 -7 2 -15
-4 -17 -15 -5 -16 -32 -2 -32 19 0 25 5 22 19 -3 13 -1 13 15 1 16 -13 15 -11
-2 10 -11 14 -21 27 -22 29 -4 7 -199 72 -240 80 -24 5 -43 5 -43 0z"/>
<path d="M1318 3643 c7 -3 16 -2 19 1 4 3 -2 6 -13 5 -11 0 -14 -3 -6 -6z"/>
<path d="M675 3630 c-3 -5 -1 -10 4 -10 6 0 11 5 11 10 0 6 -2 10 -4 10 -3 0
-8 -4 -11 -10z"/>
<path d="M5120 3620 c0 -5 5 -10 10 -10 6 0 10 -7 10 -15 0 -8 5 -15 10 -15 6
0 10 11 10 25 0 18 -5 25 -20 25 -11 0 -20 -4 -20 -10z"/>
<path d="M560 3600 c-72 -25 -43 -25 40 0 36 10 54 18 40 18 -14 0 -50 -8 -80
-18z"/>
<path d="M886 3564 c-8 -20 0 -32 14 -18 5 5 5 15 1 22 -6 11 -10 10 -15 -4z"/>
<path d="M928 3573 c7 -3 16 -2 19 1 4 3 -2 6 -13 5 -11 0 -14 -3 -6 -6z"/>
<path d="M850 3550 c0 -5 5 -10 10 -10 6 0 10 5 10 10 0 6 -4 10 -10 10 -5 0
-10 -4 -10 -10z"/>
<path d="M5181 3544 c0 -11 3 -14 6 -6 3 7 2 16 -1 19 -3 4 -6 -2 -5 -13z"/>
<path d="M5455 3550 c3 -5 11 -10 16 -10 6 0 7 5 4 10 -3 6 -11 10 -16 10 -6
0 -7 -4 -4 -10z"/>
<path d="M5533 3516 c14 -14 21 -16 30 -7 8 8 8 11 0 11 -6 0 -20 3 -30 7 -17
7 -17 6 0 -11z"/>
<path d="M750 3490 c0 -5 5 -10 11 -10 5 0 7 5 4 10 -3 6 -8 10 -11 10 -2 0
-4 -4 -4 -10z"/>
<path d="M5553 3485 c-9 -24 1 -27 15 -5 8 13 8 20 2 20 -6 0 -13 -7 -17 -15z"/>
<path d="M660 3480 c0 -5 5 -10 10 -10 6 0 10 5 10 10 0 6 -4 10 -10 10 -5 0
-10 -4 -10 -10z"/>
<path d="M5660 3470 c0 -5 5 -10 10 -10 6 0 10 5 10 10 0 6 -4 10 -10 10 -5 0
-10 -4 -10 -10z"/>
<path d="M580 3460 c-9 -6 -10 -10 -3 -10 6 0 15 5 18 10 8 12 4 12 -15 0z"/>
<path d="M605 3440 c4 -6 11 -8 16 -5 14 9 11 15 -7 15 -8 0 -12 -5 -9 -10z"/>
<path d="M680 3440 c0 -5 5 -10 10 -10 6 0 10 5 10 10 0 6 -4 10 -10 10 -5 0
-10 -4 -10 -10z"/>
<path d="M5710 3444 c0 -2 9 -8 20 -14 11 -6 20 -7 20 -2 0 6 -9 12 -20 15
-11 3 -20 3 -20 1z"/>
<path d="M5770 3423 c0 -14 1 -24 3 -22 1 2 8 11 15 20 10 14 10 18 -3 23 -11
4 -15 -1 -15 -21z"/>
<path d="M498 3433 c6 -2 18 -2 25 0 6 3 1 5 -13 5 -14 0 -19 -2 -12 -5z"/>
<path d="M555 3424 c45 -11 50 -17 20 -24 l-30 -7 29 -8 c20 -6 31 -4 34 3 2
7 13 10 28 6 24 -6 30 2 16 21 -4 6 -32 11 -62 12 -30 0 -46 -1 -35 -3z"/>
<path d="M5847 3400 c3 -11 12 -20 19 -20 17 0 18 12 2 28 -18 18 -27 15 -21
-8z"/>
<path d="M688 3403 c7 -3 16 -2 19 1 4 3 -2 6 -13 5 -11 0 -14 -3 -6 -6z"/>
<path d="M5900 3390 c0 -5 5 -10 11 -10 5 0 7 5 4 10 -3 6 -8 10 -11 10 -2 0
-4 -4 -4 -10z"/>
<path d="M5980 3356 c0 -8 -3 -22 -7 -32 -9 -25 17 -13 36 16 10 14 11 21 4
16 -7 -4 -13 -2 -13 3 0 6 -4 11 -10 11 -5 0 -10 -6 -10 -14z"/>
<path d="M6040 3325 c0 -33 17 -41 22 -10 3 14 0 26 -8 29 -10 4 -14 -3 -14
-19z"/>
<path d="M6120 3300 c0 -5 4 -10 9 -10 6 0 13 5 16 10 3 6 -1 10 -9 10 -9 0
-16 -4 -16 -10z"/>
<path d="M5001 3184 c0 -11 3 -14 6 -6 3 7 2 16 -1 19 -3 4 -6 -2 -5 -13z"/>
<path d="M6552 3150 c0 -14 2 -19 5 -12 2 6 2 18 0 25 -3 6 -5 1 -5 -13z"/>
<path d="M6440 2990 c-34 -7 -34 -7 13 -9 26 0 47 4 47 9 0 11 -8 11 -60 0z"/>
<path d="M6560 2929 c0 -5 5 -7 10 -4 6 3 10 8 10 11 0 2 -4 4 -10 4 -5 0 -10
-5 -10 -11z"/>
<path d="M2920 4170 c-13 -8 -12 -10 3 -10 9 0 17 5 17 10 0 12 -1 12 -20 0z"/>
<path d="M2971 4054 c0 -11 3 -14 6 -6 3 7 2 16 -1 19 -3 4 -6 -2 -5 -13z"/>
<path d="M2890 4040 c0 -5 5 -10 10 -10 6 0 10 5 10 10 0 6 -4 10 -10 10 -5 0
-10 -4 -10 -10z"/>
<path d="M3140 3560 c8 -5 26 -10 40 -10 20 0 22 2 10 10 -8 5 -26 10 -40 10
-20 0 -22 -2 -10 -10z"/>
<path d="M1349 2395 c-3 -2 -19 -5 -37 -7 -35 -2 -49 -23 -31 -44 15 -19 26
-18 65 7 21 12 31 25 27 35 -5 14 -16 18 -24 9z"/>
<path d="M790 2195 c-14 -16 -10 -18 14 -9 9 3 16 10 16 15 0 14 -16 11 -30
-6z"/>
<path d="M897 2193 c-12 -12 -7 -22 8 -17 8 4 15 10 15 15 0 11 -14 12 -23 2z"/>
<path d="M806 2165 c-3 -8 -1 -15 3 -15 5 0 11 7 15 15 3 8 1 15 -3 15 -5 0
-11 -7 -15 -15z"/>
<path d="M256 2153 c-20 -11 -31 -12 -36 -4 -4 7 -11 2 -19 -13 -13 -24 -8
-46 10 -46 5 0 9 9 9 21 0 11 5 17 10 14 6 -4 8 -11 5 -16 -13 -20 15 -7 33
16 11 13 22 21 26 18 3 -3 6 -1 6 5 0 19 -14 21 -44 5z"/>
<path d="M141 2101 c-7 -12 -7 -22 -2 -26 5 -3 13 4 16 16 9 28 -1 36 -14 10z"/>
<path d="M100 2091 c12 -23 30 -36 30 -22 0 10 -27 41 -36 41 -3 0 0 -9 6 -19z"/>
<path d="M101 2034 c0 -11 3 -14 6 -6 3 7 2 16 -1 19 -3 4 -6 -2 -5 -13z"/>
<path d="M116 1984 c-4 -10 -1 -14 6 -12 15 5 23 28 10 28 -5 0 -13 -7 -16
-16z"/>
<path d="M2071 1967 c-20 -51 -31 -91 -22 -81 11 13 44 104 39 109 -2 2 -10
-10 -17 -28z"/>
<path d="M47 1963 c-10 -9 -9 -23 2 -23 5 0 11 7 15 15 5 15 -5 20 -17 8z"/>
<path d="M6198 2743 c7 -3 16 -2 19 1 4 3 -2 6 -13 5 -11 0 -14 -3 -6 -6z"/>
<path d="M4388 2303 c23 -2 59 -2 80 0 20 2 1 4 -43 4 -44 0 -61 -2 -37 -4z"/>
<path d="M4118 2293 c23 -2 61 -2 85 0 23 2 4 4 -43 4 -47 0 -66 -2 -42 -4z"/>
<path d="M3418 2213 c7 -3 16 -2 19 1 4 3 -2 6 -13 5 -11 0 -14 -3 -6 -6z"/>
<path d="M4510 1068 c0 -33 14 -50 34 -42 11 4 22 1 27 -7 8 -12 11 -12 19 1
17 27 12 57 -12 64 -47 12 -68 7 -68 -16z m67 -14 c2 -6 -6 -10 -19 -9 -12 1
-24 7 -26 14 -3 8 4 12 19 9 12 -1 24 -8 26 -14z"/>
<path d="M4594 950 c1 -28 20 -30 24 -2 2 14 -2 22 -11 22 -8 0 -14 -9 -13
-20z"/>
<path d="M5300 2212 c0 -19 31 -27 40 -11 12 18 1 27 -11 9 -8 -13 -10 -13
-19 0 -7 11 -10 11 -10 2z"/>
<path d="M5332 2128 c2 -15 11 -24 26 -26 18 -3 22 1 22 22 0 21 -5 26 -26 26
-21 0 -25 -4 -22 -22z"/>
<path d="M5320 2080 c8 -5 20 -10 25 -10 6 0 3 5 -5 10 -8 5 -19 10 -25 10 -5
0 -3 -5 5 -10z"/>
<path d="M5947 1840 c4 -15 9 -17 30 -9 31 12 30 12 36 -11 3 -13 10 -18 21
-14 12 5 13 10 5 25 -5 11 -14 17 -19 14 -5 -3 -12 0 -16 6 -5 8 -9 8 -14 -1
-6 -9 -13 -9 -28 -1 -17 9 -19 8 -15 -9z"/>
<path d="M5978 1813 c7 -3 16 -2 19 1 4 3 -2 6 -13 5 -11 0 -14 -3 -6 -6z"/>
<path d="M4866 2125 c-3 -9 -6 -24 -5 -33 0 -9 5 -4 10 12 9 32 6 48 -5 21z"/>
<path d="M4842 2055 c0 -16 2 -22 5 -12 2 9 2 23 0 30 -3 6 -5 -1 -5 -18z"/>
<path d="M4842 1985 c0 -16 2 -22 5 -12 2 9 2 23 0 30 -3 6 -5 -1 -5 -18z"/>
<path d="M2850 2124 c-11 -13 -7 -18 13 -15 14 2 11 -93 -4 -121 -5 -9 -18
-19 -28 -23 -11 -3 -22 -13 -25 -22 -6 -13 -4 -14 10 -3 13 12 17 11 24 -1 5
-7 7 -25 3 -39 -5 -24 -5 -25 10 -5 12 14 16 16 17 6 0 -8 3 -12 6 -8 3 3 7
57 9 121 3 89 0 116 -10 120 -7 2 -19 -2 -25 -10z"/>
<path d="M2811 1878 c0 -28 2 -30 9 -13 12 28 12 45 0 45 -5 0 -10 -15 -9 -32z"/>
<path d="M2767 1860 c-9 -11 -13 -20 -7 -20 5 0 14 9 20 20 6 11 9 20 8 20 -2
0 -11 -9 -21 -20z"/>
<path d="M2986 1804 c-18 -17 -19 -24 -9 -51 6 -16 8 -15 13 7 3 14 14 26 24
28 16 3 18 -1 14 -27 -5 -36 6 -41 22 -10 9 16 8 26 -5 45 -18 28 -37 31 -59
8z"/>
<path d="M2720 1760 c0 -29 3 -50 7 -46 7 7 5 87 -3 95 -2 2 -4 -20 -4 -49z"/>
<path d="M2790 1790 c0 -25 -9 -25 -26 -2 -12 15 -13 12 -14 -25 0 -24 4 -43
9 -43 5 0 7 10 4 23 -5 21 -4 21 16 -3 l21 -25 0 48 c0 26 -2 47 -5 47 -3 0
-5 -9 -5 -20z"/>
<path d="M2824 1797 c-3 -9 -4 -28 -2 -44 4 -38 44 -46 54 -9 3 13 4 33 2 43
-4 22 -46 30 -54 10z m44 -35 c3 -17 -2 -22 -17 -22 -14 0 -21 6 -21 18 0 38
33 41 38 4z"/>
<path d="M2907 1803 c-10 -10 -8 -61 2 -68 6 -3 9 7 8 22 -2 22 3 29 21 31 12
2 22 8 22 13 0 10 -43 12 -53 2z"/>
<path d="M2664 1786 c-9 -22 0 -69 13 -73 17 -6 34 33 27 62 -7 27 -31 34 -40
11z m26 -21 c0 -14 -4 -25 -10 -25 -5 0 -10 11 -10 25 0 14 5 25 10 25 6 0 10
-11 10 -25z"/>
<path d="M2752 1668 c14 -22 85 -64 93 -56 3 2 5 18 7 35 1 18 5 30 8 28 3 -2
12 0 20 6 10 6 -12 9 -64 9 l-78 0 14 -22z"/>
<path d="M2916 1667 c3 -10 9 -15 12 -12 3 3 0 11 -7 18 -10 9 -11 8 -5 -6z"/>
<path d="M2870 1655 c-7 -8 -8 -15 -2 -15 5 0 15 7 22 15 7 8 8 15 2 15 -5 0
-15 -7 -22 -15z"/>
<path d="M2929 1613 c-13 -16 -12 -17 4 -4 16 13 21 21 13 21 -2 0 -10 -8 -17
-17z"/>
<path d="M2790 1590 c8 -5 22 -9 30 -9 10 0 8 3 -5 9 -27 12 -43 12 -25 0z"/>
<path d="M3700 2019 c0 -6 7 -9 15 -6 8 4 17 1 21 -5 4 -7 3 -8 -4 -4 -8 4
-12 0 -12 -12 0 -10 -11 -47 -26 -81 -14 -35 -23 -66 -20 -69 5 -5 26 41 26
58 0 4 7 10 15 14 8 3 14 2 14 -2 -3 -20 3 -40 22 -71 30 -50 33 -31 4 22
l-26 46 25 17 c15 9 26 23 26 32 0 12 -6 10 -25 -8 -26 -25 -47 -21 -25 5 7 8
9 15 6 15 -4 0 0 7 8 16 9 8 22 12 28 9 7 -4 2 3 -11 14 -25 22 -61 28 -61 10z"/>
<path d="M3800 1993 c0 -22 -3 -68 -6 -102 -4 -34 -3 -61 2 -61 10 0 74 167
74 191 0 25 -19 -12 -36 -73 -9 -32 -21 -58 -26 -58 -5 0 -7 8 -4 18 8 28 10
111 3 118 -4 4 -7 -11 -7 -33z"/>
<path d="M3658 1943 c5 -21 7 -23 10 -9 2 10 0 22 -6 28 -6 6 -7 0 -4 -19z"/>
<path d="M3526 1684 c-8 -21 -8 -39 1 -30 8 7 15 46 9 46 -2 0 -7 -7 -10 -16z"/>
<path d="M381 1900 c0 -8 4 -24 9 -35 l9 -20 0 20 c0 11 -4 27 -9 35 -9 13
-10 13 -9 0z"/>
<path d="M453 1813 c-17 -6 -16 -33 1 -33 7 0 16 9 19 20 5 20 2 22 -20 13z"/>
<path d="M410 1794 c0 -8 5 -12 10 -9 6 4 8 11 5 16 -9 14 -15 11 -15 -7z"/>
<path d="M4860 1888 c0 -23 17 -31 24 -12 4 9 4 19 1 22 -3 3 -5 -1 -5 -9 0
-11 -2 -11 -10 1 -8 13 -10 13 -10 -2z"/>
<path d="M6728 1843 c6 -2 18 -2 25 0 6 3 1 5 -13 5 -14 0 -19 -2 -12 -5z"/>
<path d="M3201 1788 c0 -16 2 -18 6 -8 3 8 11 18 17 22 7 5 4 8 -6 8 -12 0
-18 -7 -17 -22z"/>
<path d="M3220 1771 c0 -6 4 -13 10 -16 6 -3 7 1 4 9 -7 18 -14 21 -14 7z"/>
<path d="M3200 1730 c0 -6 7 -10 15 -10 8 0 15 2 15 4 0 2 -7 6 -15 10 -8 3
-15 1 -15 -4z"/>
<path d="M6610 1610 c0 -6 7 -10 15 -10 8 0 15 2 15 4 0 2 -7 6 -15 10 -8 3
-15 1 -15 -4z"/>
<path d="M2258 1743 c7 -3 16 -2 19 1 4 3 -2 6 -13 5 -11 0 -14 -3 -6 -6z"/>
<path d="M2168 1713 c7 -3 16 -2 19 1 4 3 -2 6 -13 5 -11 0 -14 -3 -6 -6z"/>
<path d="M2170 1685 c0 -9 -13 -22 -30 -28 -19 -7 -30 -18 -30 -31 0 -16 3
-17 12 -8 19 19 48 15 48 -7 0 -11 5 -23 11 -26 6 -4 8 -29 5 -63 l-5 -57 10
55 c13 66 20 75 47 61 17 -9 19 -18 16 -53 l-4 -43 15 45 c19 58 19 80 -1 80
-30 0 -74 33 -74 57 0 12 -4 25 -10 28 -5 3 -10 -1 -10 -10z"/>
<path d="M2170 1410 c0 -5 5 -10 11 -10 5 0 7 5 4 10 -3 6 -8 10 -11 10 -2 0
-4 -4 -4 -10z"/>
<path d="M2215 1391 c-17 -7 -17 -8 8 -13 19 -4 27 -1 27 8 0 15 -6 16 -35 5z"/>
<path d="M2629 1648 c-6 -15 -3 -88 3 -88 4 0 8 12 8 28 0 21 2 24 10 12 8
-13 10 -12 10 3 0 9 -4 17 -10 17 -5 0 -10 5 -10 11 0 5 5 7 10 4 6 -3 10 -1
10 4 0 9 -28 16 -31 9z"/>
<path d="M2624 1521 c0 -11 9 -22 19 -25 15 -4 16 -2 6 11 -10 12 -10 16 2 24
11 7 10 9 -6 9 -14 0 -21 -7 -21 -19z"/>
<path d="M2623 1411 c1 -38 5 -67 9 -64 5 2 8 17 8 34 0 16 4 29 8 29 10 0 8
27 -3 53 -15 36 -24 15 -22 -52z"/>
<path d="M2630 1330 c-9 -6 -10 -10 -3 -10 6 0 15 5 18 10 8 12 4 12 -15 0z"/>
<path d="M142 1538 c-25 -48 -31 -85 -9 -57 7 9 21 18 31 20 11 3 24 19 32 42
12 35 12 37 -9 37 -16 0 -28 -12 -45 -42z"/>
<path d="M5857 1509 c7 -7 15 -10 18 -7 3 3 -2 9 -12 12 -14 6 -15 5 -6 -5z"/>
<path d="M5270 1521 c0 -5 7 -12 16 -15 14 -5 15 -4 4 9 -14 17 -20 19 -20 6z"/>
<path d="M1465 1210 c-8 -13 15 -13 35 0 12 8 11 10 -7 10 -12 0 -25 -4 -28
-10z"/>
<path d="M1388 1203 c12 -2 32 -2 45 0 12 2 2 4 -23 4 -25 0 -35 -2 -22 -4z"/>
<path d="M1538 1193 c7 -3 16 -2 19 1 4 3 -2 6 -13 5 -11 0 -14 -3 -6 -6z"/>
<path d="M158 1183 c12 -2 30 -2 40 0 9 3 -1 5 -23 4 -22 0 -30 -2 -17 -4z"/>
<path d="M119 1113 c-13 -16 -12 -17 4 -4 9 7 17 15 17 17 0 8 -8 3 -21 -13z"/>
<path d="M85 1030 c4 -6 11 -8 16 -5 14 9 11 15 -7 15 -8 0 -12 -5 -9 -10z"/>
<path d="M1011 650 c-18 -10 -1 -19 40 -22 19 -1 39 -6 46 -10 17 -14 96 -5
101 10 3 10 -5 13 -30 11 -18 -2 -39 0 -46 5 -7 4 -21 5 -31 1 -10 -3 -29 -1
-43 4 -14 5 -30 6 -37 1z"/>
<path d="M1300 611 c0 -9 34 -21 60 -21 11 1 10 4 -4 15 -22 16 -56 20 -56 6z"/>
<path d="M1460 590 c0 -5 7 -10 16 -10 8 0 12 5 9 10 -3 6 -10 10 -16 10 -5 0
-9 -4 -9 -10z"/>
<path d="M1630 570 c20 -13 33 -13 25 0 -3 6 -14 10 -23 10 -15 0 -15 -2 -2
-10z"/>
<path d="M1695 560 c-3 -5 -2 -10 4 -10 5 0 13 5 16 10 3 6 2 10 -4 10 -5 0
-13 -4 -16 -10z"/>
<path d="M1378 523 c6 -2 18 -2 25 0 6 3 1 5 -13 5 -14 0 -19 -2 -12 -5z"/>
<path d="M1098 513 c6 -2 18 -2 25 0 6 3 1 5 -13 5 -14 0 -19 -2 -12 -5z"/>
<path d="M2043 503 c9 -2 25 -2 35 0 9 3 1 5 -18 5 -19 0 -27 -2 -17 -5z"/>
<path d="M408 463 c7 -3 16 -2 19 1 4 3 -2 6 -13 5 -11 0 -14 -3 -6 -6z"/>
<path d="M2419 459 c-22 -13 -2 -22 28 -12 25 9 26 10 6 15 -11 3 -27 2 -34
-3z"/>
<path d="M2510 450 c0 -5 5 -10 11 -10 5 0 7 5 4 10 -3 6 -8 10 -11 10 -2 0
-4 -4 -4 -10z"/>
<path d="M838 413 c7 -3 16 -2 19 1 4 3 -2 6 -13 5 -11 0 -14 -3 -6 -6z"/>
<path d="M3038 373 c7 -3 16 -2 19 1 4 3 -2 6 -13 5 -11 0 -14 -3 -6 -6z"/>
<path d="M3176 355 c4 -8 10 -12 15 -9 11 6 2 24 -11 24 -5 0 -7 -7 -4 -15z"/>
<path d="M3210 349 c0 -5 5 -7 10 -4 6 3 10 8 10 11 0 2 -4 4 -10 4 -5 0 -10
-5 -10 -11z"/>
<path d="M1168 293 c7 -3 16 -2 19 1 4 3 -2 6 -13 5 -11 0 -14 -3 -6 -6z"/>
<path d="M870 245 c0 -9 5 -15 11 -13 6 2 11 8 11 13 0 5 -5 11 -11 13 -6 2
-11 -4 -11 -13z"/>
<path d="M3210 90 c-9 -6 -10 -10 -3 -10 6 0 15 5 18 10 8 12 4 12 -15 0z"/>
<path d="M2980 780 c-13 -8 -12 -10 3 -10 9 0 17 5 17 10 0 12 -1 12 -20 0z"/>
<path d="M2985 730 c-3 -5 1 -10 9 -10 9 0 16 5 16 10 0 6 -4 10 -9 10 -6 0
-13 -4 -16 -10z"/>
<path d="M2895 680 c-3 -5 -1 -10 4 -10 6 0 11 5 11 10 0 6 -2 10 -4 10 -3 0
-8 -4 -11 -10z"/>
<path d="M215 1080 c-3 -5 -1 -10 4 -10 6 0 11 5 11 10 0 6 -2 10 -4 10 -3 0
-8 -4 -11 -10z"/>
<path d="M196 1051 c-4 -6 4 -13 18 -17 35 -8 48 -3 36 16 -9 13 -11 13 -20 0
-8 -12 -11 -13 -19 -1 -6 9 -11 10 -15 2z"/>
<path d="M190 1000 c0 -5 8 -10 18 -11 9 0 26 -2 37 -5 11 -2 27 -1 35 3 10 4
6 8 -15 13 -45 11 -75 11 -75 0z"/>
<path d="M1520 1010 c14 -4 70 -8 125 -8 81 0 92 2 55 9 -60 10 -214 10 -180
-1z"/>
<path d="M1630 980 c-19 -6 -12 -8 30 -9 39 0 51 2 40 9 -17 11 -35 11 -70 0z"/>
<path d="M1760 970 c36 -11 108 -12 115 -1 3 6 -25 9 -67 9 -50 0 -65 -3 -48
-8z"/>
</g>
</svg>
